<svg width="1533" height="379" viewBox="0 0 1533 379" fill="none" xmlns="http://www.w3.org/2000/svg">
<path d="M189.601 352.931C112.23 352.931 47.4165 299.226 30.3506 227.053H4.59082C22.0937 313.233 98.2691 378.093 189.624 378.093C289.674 378.093 371.53 300.284 377.993 201.891H352.762C346.345 286.392 275.759 352.931 189.601 352.931Z" fill="#FFFFFF"/>
<path d="M189.602 25.6652C275.736 25.6652 346.323 92.2037 352.763 176.705H377.994C371.508 78.3118 289.651 0.503418 189.602 0.503418C98.2466 0.503418 22.0712 65.3629 4.56836 151.543H30.3512C47.394 79.3928 112.231 25.6652 189.602 25.6652Z" fill="#FFFFFF"/>
<path d="M189.6 50.852C126.212 50.852 72.8526 93.4477 56.4077 151.545H82.7885C98.3364 107.547 140.265 76.0138 189.6 76.0138C247.904 76.0138 295.905 120.081 302.161 176.707H327.461C321.113 106.144 261.819 50.829 189.6 50.829V50.852Z" fill="#FFFFFF"/>
<path d="M56.3857 227.076C72.8306 285.173 126.213 327.769 189.578 327.769C261.797 327.769 321.068 272.478 327.439 201.891H302.162C295.906 258.517 247.905 302.584 189.601 302.584C140.289 302.584 98.3604 271.052 82.7895 227.076H56.4087H56.3857Z" fill="#FFFFFF"/>
<path d="M139.256 227.076H109.977C124.122 256.837 154.436 277.422 189.602 277.422C233.992 277.422 270.7 244.601 276.795 201.914H251.265C245.446 230.64 220.031 252.26 189.579 252.26C168.995 252.26 150.733 242.37 139.233 227.099L139.256 227.076Z" fill="#FFFFFF"/>
<path d="M276.795 176.726C270.677 134.039 233.992 101.195 189.602 101.195C154.459 101.195 124.122 121.78 109.977 151.542H139.256C150.733 136.247 169.018 126.38 189.602 126.38C220.054 126.38 245.446 148 251.288 176.726H276.818H276.795Z" fill="#FFFFFF"/>
<path d="M174.789 204.328V234.366L229.574 189.309L174.789 144.252V176.728H1.23192C0.955921 180.891 0.794922 185.1 0.794922 189.309C0.794922 193.518 0.955921 197.727 1.23192 201.89H174.789V204.328Z" fill="#FFFFFF"/>
<path d="M568.66 178.59C554.883 178.59 542.762 175.439 532.251 169.114C521.74 162.813 513.529 153.797 507.549 142.09C501.593 130.383 498.603 116.307 498.603 99.839C498.603 83.3712 501.501 69.6403 507.319 57.7954C513.138 45.9504 521.303 36.7965 531.791 30.3336C542.279 23.8706 554.63 20.6506 568.821 20.6506C588.118 20.6506 603.091 25.4346 613.74 35.0255C624.389 44.5935 631.335 57.9793 634.601 75.1602L605.644 76.6552C603.804 66.7193 599.825 58.9223 593.73 53.2414C587.635 47.5604 579.332 44.7315 568.821 44.7315C560.311 44.7315 552.928 47.0084 546.672 51.5394C540.416 56.0934 535.609 62.4643 532.205 70.6983C528.801 78.9322 527.099 88.6611 527.099 99.862C527.099 111.063 528.824 120.976 532.32 129.141C535.793 137.306 540.646 143.585 546.902 147.978C553.135 152.371 560.38 154.579 568.614 154.579C579.815 154.579 588.509 151.497 594.696 145.31C600.86 139.146 604.816 130.659 606.518 119.872L635.475 121.367C633.474 133.143 629.656 143.332 623.975 151.911C618.294 160.49 610.819 167.091 601.527 171.713C592.235 176.313 581.264 178.636 568.637 178.636L568.66 178.59Z" fill="#FFFFFF"/>
<path d="M699.393 177.74C688.192 177.74 678.348 175.302 669.907 170.403C661.467 165.504 654.935 158.581 650.312 149.657C645.689 140.71 643.389 130.291 643.389 118.354C643.389 106.418 645.689 95.8376 650.312 86.9597C654.912 78.0817 661.444 71.2048 669.907 66.3058C678.348 61.4069 688.169 58.9689 699.393 58.9689C710.617 58.9689 720.392 61.4069 728.764 66.3058C737.136 71.2048 743.622 78.0817 748.245 86.9597C752.845 95.8376 755.168 106.303 755.168 118.354C755.168 130.406 752.868 140.71 748.245 149.657C743.622 158.604 737.136 165.527 728.764 170.403C720.392 175.302 710.594 177.74 699.393 177.74ZM699.393 155.614C708.202 155.614 714.964 152.348 719.725 145.816C724.486 139.284 726.855 130.13 726.855 118.354C726.855 106.579 724.486 97.6086 719.725 91.0076C714.964 84.4067 708.202 81.1177 699.393 81.1177C690.584 81.1177 683.776 84.4067 678.969 91.0076C674.139 97.6086 671.724 106.717 671.724 118.354C671.724 129.992 674.139 139.284 678.969 145.816C683.799 152.348 690.607 155.614 699.393 155.614Z" fill="#FFFFFF"/>
<path d="M764.161 175.187V61.5223H788.863L789.713 89.3981L787.16 88.1101C788.448 82.0151 790.679 76.7942 793.876 72.4702C797.073 68.1462 800.96 64.8112 805.583 62.4653C810.183 60.1193 815.266 58.9463 820.809 58.9463C830.469 58.9463 838.266 61.6833 844.223 67.1342C850.18 72.6082 853.929 80.0831 855.493 89.5821H851.882C853.17 82.9121 855.355 77.3462 858.483 72.8842C861.611 68.4222 865.544 64.9722 870.305 62.5573C875.066 60.1423 880.425 58.9463 886.382 58.9463C894.179 58.9463 900.918 60.6253 906.599 63.9373C912.28 67.2722 916.626 72.1252 919.685 78.5191C922.744 84.9131 924.262 92.779 924.262 102.14V175.141H897.008V109.155C897.008 99.794 895.421 92.756 892.224 88.0871C889.027 83.4181 884.174 81.0721 877.642 81.0721C873.249 81.0721 869.477 82.1991 866.372 84.4761C863.244 86.7531 860.875 90.0421 859.242 94.366C857.609 98.69 856.804 103.911 856.804 110.006V175.141H831.481V110.006C831.481 100.645 830.055 93.469 827.226 88.5011C824.374 83.5331 819.498 81.0491 812.529 81.0491C808.136 81.0491 804.41 82.1761 801.351 84.4531C798.292 86.7301 795.877 90.0191 794.106 94.343C792.335 98.667 791.438 103.888 791.438 109.983V175.118H764.184L764.161 175.187Z" fill="#FFFFFF"/>
<path d="M935.9 175.187V61.5223H960.602L961.453 89.3981L958.9 88.1101C960.188 82.0151 962.419 76.7942 965.616 72.4702C968.813 68.1462 972.7 64.8112 977.323 62.4653C981.923 60.1193 987.006 58.9463 992.548 58.9463C1002.21 58.9463 1010.01 61.6833 1015.96 67.1342C1021.92 72.6082 1025.67 80.0831 1027.23 89.5821H1023.62C1024.91 82.9121 1027.09 77.3462 1030.22 72.8842C1033.35 68.4222 1037.28 64.9722 1042.04 62.5573C1046.81 60.1423 1052.16 58.9463 1058.12 58.9463C1065.92 58.9463 1072.66 60.6253 1078.34 63.9373C1084.02 67.2722 1088.37 72.1252 1091.42 78.5191C1094.48 84.9131 1096 92.779 1096 102.14V175.141H1068.75V109.155C1068.75 99.794 1067.16 92.756 1063.96 88.0871C1060.77 83.4181 1055.91 81.0721 1049.38 81.0721C1044.99 81.0721 1041.22 82.1991 1038.11 84.4761C1034.98 86.7531 1032.61 90.0421 1030.98 94.366C1029.35 98.69 1028.54 103.911 1028.54 110.006V175.141H1003.22V110.006C1003.22 100.645 1001.79 93.469 998.965 88.5011C996.113 83.5331 991.237 81.0491 984.269 81.0491C979.876 81.0491 976.15 82.1761 973.091 84.4531C970.032 86.7301 967.617 90.0191 965.846 94.343C964.075 98.667 963.178 103.888 963.178 109.983V175.118H935.923L935.9 175.187Z" fill="#FFFFFF"/>
<path d="M1143.96 177.738C1132.46 177.738 1123.35 173.943 1116.61 166.353C1109.87 158.764 1106.49 148.23 1106.49 134.752V61.5203H1133.74V127.944C1133.74 137.443 1135.33 144.435 1138.53 148.92C1141.73 153.382 1146.58 155.636 1153.11 155.636C1160.49 155.636 1166.2 153.198 1170.25 148.299C1174.29 143.4 1176.32 136.27 1176.32 126.909V61.5663H1203.57V175.231H1178.66L1178.02 143.929L1181.42 144.987C1179.72 155.774 1175.67 163.938 1169.28 169.458C1162.89 175.001 1154.44 177.761 1143.96 177.761V177.738Z" fill="#FFFFFF"/>
<path d="M1215.23 175.187V61.5223H1239.93L1240.99 93.446L1237.79 92.158C1238.92 84.2231 1241.27 77.8291 1244.81 72.9992C1248.35 68.1692 1252.7 64.6272 1257.8 62.3503C1262.91 60.0733 1268.52 58.9463 1274.62 58.9463C1282.99 58.9463 1290.05 60.7863 1295.8 64.4892C1301.55 68.1692 1305.92 73.2522 1308.89 79.7151C1311.88 86.1781 1313.35 93.653 1313.35 102.163V175.164H1286.09V110.88C1286.09 104.486 1285.45 99.104 1284.18 94.711C1282.92 90.3181 1280.8 86.9371 1277.91 84.5911C1274.98 82.2451 1271.12 81.0721 1266.31 81.0721C1259.07 81.0721 1253.3 83.6251 1248.97 88.7311C1244.65 93.837 1242.49 101.22 1242.49 110.88V175.164H1215.23V175.187Z" fill="#FFFFFF"/>
<path d="M1324.6 46.4113V22.1465H1352.91V46.4113H1324.6ZM1325.03 175.187V61.5222H1352.29V175.187H1325.03Z" fill="#FFFFFF"/>
<path d="M1344.38 82.592V61.5241H1432.33L1443.99 82.592H1344.38ZM1408.04 175.189C1396.68 175.189 1388.35 172.567 1383.04 167.323C1377.73 162.079 1375.06 153.845 1375.06 142.622V34.9133H1402.31V140.069C1402.31 145.313 1403.44 148.969 1405.72 151.039C1407.99 153.109 1411.54 154.121 1416.37 154.121H1426.44V175.189H1408.09H1408.04Z" fill="#FFFFFF"/>
<path d="M1438.33 207.136V186.068H1452.8C1456.48 186.068 1459.22 185.493 1460.99 184.366C1462.76 183.239 1464.14 181.307 1465.15 178.616L1468.35 170.75L1467.73 190.231L1419.82 61.5697H1448.13L1476.65 145.22L1503.9 61.5697H1532.22L1487.74 187.149C1485.18 194.233 1481.6 199.362 1477 202.467C1472.37 205.595 1465.96 207.159 1457.72 207.159H1438.36L1438.33 207.136Z" fill="#FFFFFF"/>
<path d="M504.146 352.839V201.707H560.772C579.217 201.707 593.224 204.973 602.815 211.505C612.406 218.037 617.19 228.387 617.19 242.578C617.19 248.972 615.879 254.537 613.257 259.298C610.635 264.059 606.794 267.785 601.757 270.476C596.72 273.167 590.648 274.662 583.564 274.938L583.357 274.501C596.26 274.938 606.196 278.434 613.165 285.035C620.111 291.636 623.607 300.399 623.607 311.324C623.607 325.239 618.823 335.635 609.232 342.512C599.641 349.389 586.071 352.839 568.477 352.839H504.192H504.146ZM531.838 265.14H559.944C569.028 265.14 576.112 263.438 581.218 260.034C586.324 256.63 588.877 251.663 588.877 245.131C588.877 238.599 586.393 233.286 581.425 230.02C576.457 226.754 569.282 225.121 559.921 225.121H531.815V265.14H531.838ZM531.838 329.425H567.166C575.813 329.425 582.667 327.654 587.704 324.112C592.741 320.57 595.248 315.303 595.248 308.357C595.248 301.411 592.764 296.075 587.796 292.395C582.828 288.715 575.951 286.852 567.143 286.852H531.815V329.425H531.838Z" fill="#FFFFFF"/>
<path d="M687.984 355.391C676.783 355.391 666.939 352.953 658.498 348.054C650.057 343.155 643.525 336.232 638.902 327.308C634.279 318.361 631.979 307.942 631.979 296.006C631.979 284.069 634.279 273.489 638.902 264.611C643.502 255.733 650.034 248.856 658.498 243.957C666.939 239.058 676.76 236.62 687.984 236.62C699.208 236.62 708.983 239.058 717.355 243.957C725.727 248.856 732.213 255.733 736.836 264.611C741.436 273.489 743.759 283.954 743.759 296.006C743.759 308.057 741.459 318.361 736.836 327.308C732.213 336.255 725.727 343.178 717.355 348.054C708.983 352.953 699.185 355.391 687.984 355.391ZM687.984 333.242C696.793 333.242 703.555 329.976 708.316 323.444C713.077 316.912 715.446 307.758 715.446 295.983C715.446 284.207 713.077 275.237 708.316 268.636C703.555 262.035 696.793 258.746 687.984 258.746C679.175 258.746 672.367 262.035 667.56 268.636C662.73 275.237 660.315 284.345 660.315 295.983C660.315 307.62 662.73 316.912 667.56 323.444C672.39 329.976 679.198 333.242 687.984 333.242Z" fill="#FFFFFF"/>
<path d="M808.18 355.391C796.979 355.391 787.136 352.953 778.695 348.054C770.254 343.155 763.722 336.232 759.099 327.308C754.476 318.361 752.176 307.942 752.176 296.006C752.176 284.069 754.476 273.489 759.099 264.611C763.699 255.733 770.231 248.856 778.695 243.957C787.136 239.058 796.956 236.62 808.18 236.62C819.404 236.62 829.179 239.058 837.551 243.957C845.923 248.856 852.409 255.733 857.032 264.611C861.632 273.489 863.955 283.954 863.955 296.006C863.955 308.057 861.655 318.361 857.032 327.308C852.409 336.255 845.923 343.178 837.551 348.054C829.179 352.953 819.381 355.391 808.18 355.391ZM808.18 333.242C816.989 333.242 823.751 329.976 828.512 323.444C833.273 316.912 835.642 307.758 835.642 295.983C835.642 284.207 833.273 275.237 828.512 268.636C823.751 262.035 816.989 258.746 808.18 258.746C799.371 258.746 792.563 262.035 787.757 268.636C782.927 275.237 780.512 284.345 780.512 295.983C780.512 307.62 782.927 316.912 787.757 323.444C792.586 329.976 799.394 333.242 808.18 333.242Z" fill="#FFFFFF"/>
<path d="M922.399 355.391C911.198 355.391 901.791 353.758 894.201 350.492C886.611 347.226 880.746 342.695 876.629 336.876C872.512 331.057 870.166 324.456 869.614 317.073L897.49 315.808C898.479 321.765 900.963 326.388 904.942 329.654C908.921 332.92 914.809 334.553 922.606 334.553C929 334.553 933.991 333.518 937.602 331.471C941.213 329.424 943.03 326.181 943.03 321.788C943.03 319.235 942.386 317.096 941.121 315.394C939.833 313.692 937.441 312.197 933.876 310.932C930.334 309.644 925.067 308.379 918.121 307.091C906.483 305.113 897.329 302.652 890.659 299.755C883.989 296.857 879.274 293.2 876.491 288.784C873.731 284.391 872.351 278.917 872.351 272.385C872.351 261.736 876.422 253.111 884.587 246.51C892.752 239.909 904.712 236.62 920.444 236.62C930.656 236.62 939.258 238.299 946.204 241.611C953.15 244.946 958.578 249.477 962.488 255.227C966.398 260.977 968.836 267.532 969.825 274.915L942.363 276.203C941.65 272.362 940.362 269.05 938.522 266.198C936.682 263.369 934.198 261.207 931.07 259.712C927.942 258.217 924.262 257.481 920.007 257.481C913.613 257.481 908.806 258.769 905.54 261.322C902.274 263.875 900.641 267.279 900.641 271.534C900.641 274.524 901.377 277.008 902.872 278.986C904.367 280.987 906.805 282.574 910.209 283.77C913.613 284.989 918.144 286.07 923.825 287.059C935.739 288.899 945.146 291.291 952.023 294.189C958.9 297.11 963.799 300.79 966.72 305.251C969.618 309.713 971.089 315.072 971.089 321.328C971.089 328.573 969.066 334.737 965.018 339.843C960.97 344.949 955.289 348.813 947.998 351.435C940.684 354.057 932.128 355.368 922.353 355.368L922.399 355.391Z" fill="#FFFFFF"/>
<path d="M971.159 260.239V239.171H1046.3V260.239H971.159ZM1022.03 352.836C1010.67 352.836 1002.35 350.214 997.034 344.97C991.721 339.726 989.053 331.492 989.053 320.268V212.56H1016.31V317.715C1016.31 322.959 1017.43 326.616 1019.71 328.686C1021.99 330.756 1025.53 331.768 1030.36 331.768H1046.32V352.836H1022.06H1022.03Z" fill="#FFFFFF"/>
</svg>
