<svg width="313" height="78" viewBox="0 0 313 78" fill="none" xmlns="http://www.w3.org/2000/svg">
<path d="M102.844 41.0946C108.424 41.0777 119.014 40.2159 123.169 43.1973C127.688 46.439 127.203 54.9533 120 56.0429C120.387 56.09 120.772 56.147 121.156 56.2139C126.37 57.1614 127.942 61.2335 127.036 65.9884C125.076 72.8025 116.775 72.0249 111.259 72.009L102.848 72.0079C102.687 61.8582 102.843 51.2797 102.844 41.0946ZM108.58 67.2288C111.806 67.2475 117.612 67.7748 120.137 65.9174C122.407 63.6637 121.649 59.9118 118.651 58.9987C115.841 58.1429 111.602 58.5002 108.57 58.5302L108.58 67.2288ZM108.575 54.0923C111.709 54.1138 116.345 54.5708 118.859 52.7917C119.753 51.9492 120.047 51.4952 120.117 50.2502C120.345 46.1909 116.29 45.8827 113.219 45.8552C111.693 45.8555 110.167 45.8734 108.641 45.9086C108.436 47.4292 108.566 52.4054 108.575 54.0923Z" fill="#2B2B2B"/>
<path d="M280.858 7.06336L286.497 7.04248L286.5 12.445L295.805 12.4401C297.788 18.128 299.732 23.8297 301.635 29.5447C303.402 23.8534 305.325 18.115 307.172 12.4423L313 12.4463C310.363 21.0503 306.696 29.7772 303.829 38.3425C302.276 42.984 297.791 42.3298 293.746 42.3054V37.9013C295.359 37.9124 297.941 38.2732 298.98 36.8594C298.678 35.4961 296.648 30.3732 296.061 28.7969L291.579 16.7616L286.497 16.7858C286.527 20.8357 286.379 24.9242 286.549 28.9693C286.668 31.7954 289.318 31.3911 291.424 31.3567L291.421 35.7502C281.71 35.7653 280.805 35.0909 280.829 25.2107L280.86 16.7607L276.266 16.7869L276.27 35.7525C274.431 35.7104 272.472 35.7433 270.622 35.745C270.518 28.0732 270.602 20.1363 270.625 12.4473L280.849 12.4445L280.858 7.06336Z" fill="#2B2B2B"/>
<path d="M35.2753 0.118288C36.2741 -0.0336217 38.0999 0.00346494 39.1415 0.00524274C56.8567 0.0354803 72.6877 13.0741 76.3051 30.3973C76.7047 32.3102 76.923 34.1012 77.1448 36.0371L71.907 36.0425C71.3702 31.7991 70.6873 28.4477 68.8562 24.546C64.4428 15.1424 56.7706 9.0222 46.9003 6.2381C46.7523 6.20003 46.6039 6.16296 46.4553 6.12688C37.8606 4.05544 28.7961 5.4671 21.2371 10.0542C13.5895 14.6753 8.12671 22.1864 6.08391 30.8891C4.34623 30.8406 2.45631 30.8721 0.706299 30.8706C1.89343 25.0117 4.43152 19.5112 8.11834 14.8072C15.1639 5.85603 24.0881 1.44254 35.2753 0.118288Z" fill="#72D88C"/>
<path d="M71.9341 41.1946L77.1376 41.1736C76.8275 45.0139 76.1962 48.2788 74.8466 51.9157C71.3052 61.5196 64.1091 69.3305 54.8308 73.6423C45.5171 77.9289 34.8867 78.3532 25.2616 74.8228C15.5223 71.2559 7.63046 63.9122 3.36943 54.4508C2.05584 51.4666 1.45394 49.3995 0.757812 46.2925L6.05171 46.2772C7.19992 50.9137 9.28904 55.2642 12.1892 59.0583C17.6006 66.0419 25.5565 70.5958 34.3155 71.7237C50.4969 73.7717 65.9062 63.8633 70.605 48.1521C71.3212 45.7575 71.6283 43.6511 71.9341 41.1946Z" fill="#72D88C"/>
<path d="M141.151 12.047C143.523 11.5001 147.443 12.3693 149.429 13.8006C151.385 15.1806 153.06 17.4329 153.632 19.8105C155.506 27.6004 152.813 34.7126 144.522 36.1755C141.135 36.3145 138.387 36.1348 135.595 33.9997C129.365 29.2353 129.828 16.9145 137.024 13.2472C138.459 12.5165 139.58 12.2428 141.151 12.047ZM143.352 31.6627C148.064 30.9578 148.746 25.8226 148.198 21.9492C147.752 18.7936 145.935 16.4421 142.582 16.4897C141.14 16.625 139.629 17.0907 138.796 18.3411C135.797 22.8404 136.414 31.7532 143.352 31.6627Z" fill="#2B2B2B"/>
<path d="M138.696 48.3218C141.351 47.8079 144.747 48.5549 147.005 50.0589C153.898 54.6506 153.549 67.6234 145.924 71.3363C144.614 71.9744 143.628 72.1879 142.184 72.4544C139.086 72.7627 136.048 72.2923 133.476 70.436C127.177 65.89 127.406 53.8617 134.194 49.8369C135.805 48.8822 136.86 48.6033 138.696 48.3218ZM141.506 67.9588C143.017 67.4698 144.506 66.569 145.111 65.0439C147.097 60.0369 146.318 52.2408 139.261 52.8981C134.581 54.3996 134.19 59.9227 135.335 64.0422C136.173 67.0562 138.534 68.1366 141.506 67.9588Z" fill="#2B2B2B"/>
<path d="M163.237 48.3203C170.094 47.2725 175.784 51.7582 176.347 58.6175C176.938 65.7887 174.077 71.0941 166.798 72.4468C163.681 72.7306 160.745 72.356 158.106 70.4885C152.734 66.6868 152.166 57.6641 155.836 52.5338C157.692 49.9423 160.171 48.8057 163.237 48.3203ZM166.324 67.8985C170.93 66.1255 171.299 60.5797 169.956 56.4069C169 53.4385 166.609 52.6736 163.719 52.9059C162.096 53.5054 160.91 54.2763 160.236 55.9621C158.265 60.8897 159.33 68.8794 166.324 67.8985Z" fill="#2B2B2B"/>
<path d="M209.451 16.6337C210.799 13.2721 212.771 12.0114 216.285 11.9822C220.337 11.9486 223.097 14.5193 223.651 18.4535C223.971 20.7248 223.847 23.2211 223.845 25.5215L223.831 35.7441C221.959 35.7238 220.051 35.7438 218.176 35.7449L218.202 26.2967C218.206 24.0027 218.297 22.0253 217.951 19.6744C217.484 16.495 213.871 15.4645 211.676 17.5064C209.721 19.3264 210.059 23.4088 210.063 25.9798L210.082 31.3598L210.092 35.7481C208.362 35.7218 206.576 35.745 204.841 35.7467L204.859 26.4044C204.862 23.6341 205.538 16.3677 201.2 16.4407C195.971 16.5289 196.707 23.2728 196.721 26.9146L196.731 35.6838L191.036 35.698C191.136 28.0143 191.048 20.1364 191.038 12.4432L196.216 12.4398C196.26 13.715 196.253 15.0658 196.268 16.3479C197.501 13.6786 198.835 12.5898 201.686 12.0208C205.696 11.7021 207.816 13.0106 209.451 16.6337Z" fill="#2B2B2B"/>
<path d="M174.299 16.6111C175.858 13.3762 177.444 12.0384 181.16 11.9653C184.85 11.8312 187.72 14.2591 188.448 17.8546C188.965 20.4098 188.798 23.2729 188.793 25.9032L188.783 35.7514C186.947 35.7093 184.989 35.7431 183.144 35.7456C183.054 32.409 183.141 29.0492 183.141 25.7103C183.141 23.8366 183.253 21.8688 182.913 20.0213C182.742 19.0818 182.468 18.1598 181.778 17.4667C181.116 16.8013 180.268 16.5109 179.338 16.5112C178.281 16.5116 177.319 16.7284 176.555 17.4981C174.233 19.8418 174.978 27.9864 174.99 31.2065L174.993 35.7434L169.717 35.7468C169.621 32.3472 169.811 28.8895 169.734 25.4686C169.677 22.9149 170.136 19.393 168.284 17.347C167.01 15.9529 164.496 16.2715 163.265 17.5604C161.181 19.74 161.629 23.6816 161.637 26.4999L161.646 35.681C159.769 35.6798 157.894 35.6886 156.017 35.7075C155.91 28.0421 156.006 20.1294 156.017 12.4445L161.073 12.4391L161.23 16.1398C162.567 13.6672 163.771 12.5416 166.598 12.0318C170.21 11.5405 173.026 13.1793 174.299 16.6111Z" fill="#2B2B2B"/>
<path d="M116.181 4.11255C123.686 4.33258 128.237 7.70278 129.565 15.3319C127.755 15.3652 125.38 15.4732 123.596 15.6492C123.533 15.328 123.458 15.009 123.373 14.6928C122.109 10.1008 117.886 8.0108 113.564 9.48607C103.836 12.8063 106.172 34.969 118.738 31.1059C120.842 30.459 122.047 28.9517 123.012 27.0869C123.39 26.144 123.561 25.3308 123.794 24.3463L129.748 24.6565C128.494 31.6107 124.547 35.9026 117.309 36.3894C108.034 37.0132 102.037 30.477 101.715 21.4724C101.544 16.684 102.464 11.9875 105.777 8.29114C108.608 5.13204 112.082 4.29517 116.181 4.11255Z" fill="#2B2B2B"/>
<path d="M37.9238 10.2266C44.1613 10.4348 49.018 11.4481 54.3033 15.0139C61.6335 19.9592 65.8205 27.3195 66.7766 36.0392L61.5494 36.035C59.9838 25.9123 54.3327 19.4232 44.6516 16.2366C32.2821 13.465 21.4636 19.0567 16.7822 30.8828C14.9815 30.8565 13.1408 30.8713 11.3364 30.8666C12.2597 27.1386 14.5809 22.8996 17.1286 20.0437C22.9313 13.5391 29.408 10.7924 37.9238 10.2266Z" fill="#72D88C"/>
<path d="M61.5478 41.2184C63.0061 41.1275 65.2971 41.1875 66.8177 41.1805C66.6961 42.2304 66.5333 43.2751 66.3297 44.3122C64.8027 51.67 60.4303 58.1252 54.1662 62.2701C47.8551 66.4042 40.1596 67.8558 32.7776 66.3045C25.0664 64.7484 18.9809 60.2576 14.6705 53.7624C12.9992 50.9983 12.2867 49.3428 11.3325 46.2927L16.7902 46.2804C17.6607 48.6001 18.8657 50.7797 20.3668 52.7501C24.1547 57.6324 29.7374 60.7951 35.8701 61.5328C48.6102 63.14 59.9732 53.8774 61.5478 41.2184Z" fill="#72D88C"/>
<path d="M185.781 48.3111C191.893 47.9418 196.962 49.3101 198.079 56.1365C196.221 56.2034 194.363 56.2917 192.508 56.4013C192.076 55.1915 191.954 54.5742 190.876 53.6211C188.694 51.6956 183.78 52.1126 183.941 55.7812C184.239 57.8965 187.112 58.2106 188.717 58.5446C191.885 59.2064 196.99 59.7989 198.013 63.5621C199.572 69.2989 195.043 71.9591 190.184 72.4817C184.245 72.8001 178.458 71.6104 177.524 64.6615C179.372 64.5901 181.4 64.5542 183.227 64.3556C184.255 67.818 186.357 68.5545 189.751 68.1934C191.261 68.0326 192.876 66.793 192.517 65.2249C192.006 62.9969 186.503 62.4947 184.663 62.075C180.521 61.2847 177.216 58.8626 178.224 54.1324C179.089 50.0796 182.182 48.9671 185.781 48.3111Z" fill="#2B2B2B"/>
<path d="M258.984 12.0222C259.411 11.9931 259.839 11.979 260.267 11.9798C268.88 11.9562 268.319 19.8167 268.317 25.8674L268.314 35.75C266.463 35.7142 264.522 35.7435 262.663 35.745C262.579 30.7216 262.909 25.4019 262.486 20.4013C262.158 16.5461 258.377 15.2182 255.367 17.7779C253.365 19.9774 253.783 23.8999 253.787 26.7138L253.815 35.7494C251.961 35.7151 250.024 35.7439 248.164 35.7461L248.165 12.4454L253.276 12.4385C253.368 13.6234 253.353 15.1319 253.371 16.3425C254.846 13.4808 255.868 12.7286 258.984 12.0222Z" fill="#2B2B2B"/>
<path d="M225.93 12.4481L231.593 12.4407L231.573 22.2655C231.569 25.0883 230.906 31.7618 235.275 31.7272C240.936 31.6825 240.215 25.8053 240.211 21.8223L240.198 12.4436L245.854 12.4392L245.852 20.3383L245.855 35.7475C244.139 35.7224 242.367 35.7445 240.647 35.746L240.639 32.1287C238.99 34.9791 237.179 36.2545 233.874 36.2213C225.259 36.1348 225.924 28.5114 225.926 22.6494L225.93 12.4481Z" fill="#2B2B2B"/>
<path d="M35.5425 29.3936C36.1284 29.7191 38.5153 31.7361 39.1828 32.285L46.8328 38.5854C43.0343 41.5689 39.3411 44.8288 35.5049 47.8277L35.476 41.212C29.7101 41.0929 23.4674 41.1997 17.6673 41.1985L0.0720493 41.2256C-0.0545304 39.7336 0.0112746 37.4829 0.075583 36.0013L35.4951 35.9949C35.4679 33.7943 35.4836 31.5935 35.5425 29.3936Z" fill="#72D88C"/>
<path d="M202.002 43.3048C203.866 43.3202 205.731 43.3071 207.596 43.2651L207.594 48.7594L213.72 48.7602L213.723 53.1522C211.679 53.1176 209.635 53.117 207.591 53.1504C207.608 55.6822 207.227 65.304 208.119 66.8623C209.534 68.0548 211.861 67.7082 213.71 67.6583L213.721 69.3193L213.713 72.0111C210.727 71.9679 205.869 72.6623 203.654 70.4378C201.507 68.2818 201.911 64.274 201.922 61.4057L201.96 53.1361C200.756 53.1185 199.499 53.1412 198.29 53.1442L198.293 48.7688L201.943 48.7679C201.936 47.099 201.865 44.9326 202.002 43.3048Z" fill="#2B2B2B"/>
<path d="M51.1964 41.2078C52.7271 41.1322 54.8593 41.1917 56.4358 41.1874C55.9815 44.3083 54.7222 47.257 52.7818 49.7423C49.8349 53.4727 45.5417 55.8959 40.827 56.4901C35.528 57.1346 31.0241 55.5466 26.8965 52.3095C24.6774 50.2447 23.6318 48.9936 22.3088 46.2952C24.2766 46.2638 26.3178 46.2919 28.2918 46.2922C30.2476 48.501 32.1521 50.0618 35.0497 50.9155C38.2504 51.8509 41.6907 51.4884 44.6265 49.9059C48.3071 47.8898 50.0506 45.1155 51.1964 41.2078Z" fill="#72D88C"/>
<path d="M37.3733 20.6324C40.8296 19.9682 46.1751 21.8507 48.9836 23.8849C53.1922 26.9329 55.542 30.9551 56.4273 36.0373L51.1795 36.0375C50.1388 32.0967 48.4871 29.8347 45.1269 27.5767C39.2538 24.268 32.5554 25.6133 28.3498 30.8642L22.2893 30.8608C25.0764 24.7504 30.8116 21.2255 37.3733 20.6324Z" fill="#72D88C"/>
<path d="M270.476 4.44842L276.356 4.44043L276.357 9.41155L270.471 9.42312L270.476 4.44842Z" fill="#2B2B2B"/>
</svg>
