<svg width="20" height="20" viewBox="0 0 20 20" fill="none" xmlns="http://www.w3.org/2000/svg">
<g clip-path="url(#clip0_4613_2012)">
<path d="M16.6052 9.01212C16.394 9.01212 16.1863 9.03467 15.9869 9.0774C15.7198 6.37965 13.4375 4.26465 10.6709 4.26465C10.3433 4.26465 10.0775 4.53051 10.0775 4.85808V14.353C10.0775 14.6806 10.3433 14.9465 10.6709 14.9465H16.6052C18.2419 14.9465 19.5724 13.616 19.5724 11.9793C19.5724 10.3438 18.2419 9.01212 16.6052 9.01212Z" fill="#0E0E0F"/>
<path d="M8.29711 5.45166C7.96953 5.45166 7.70367 5.71752 7.70367 6.04509V14.3532C7.70367 14.6808 7.96953 14.9466 8.29711 14.9466C8.62468 14.9466 8.89054 14.6808 8.89054 14.3532V6.04509C8.89054 5.71752 8.62468 5.45166 8.29711 5.45166Z" fill="#0E0E0F"/>
<path d="M5.92339 7.8252C5.59581 7.8252 5.32996 8.09105 5.32996 8.41863V14.353C5.32996 14.6805 5.59581 14.9464 5.92339 14.9464C6.25097 14.9464 6.51682 14.6805 6.51682 14.353V8.41863C6.51682 8.09105 6.25097 7.8252 5.92339 7.8252Z" fill="#0E0E0F"/>
<path d="M3.54967 7.8252C3.2221 7.8252 2.95624 8.09105 2.95624 8.41863V14.353C2.95624 14.6805 3.2221 14.9464 3.54967 14.9464C3.87725 14.9464 4.14311 14.6805 4.14311 14.353V8.41863C4.14311 8.09105 3.87725 7.8252 3.54967 7.8252Z" fill="#0E0E0F"/>
<path d="M1.17595 9.60547C0.848378 9.60547 0.58252 9.87133 0.58252 10.1989V13.7595C0.58252 14.0871 0.848378 14.3529 1.17595 14.3529C1.50353 14.3529 1.76939 14.0871 1.76939 13.7595V10.1989C1.76939 9.87133 1.50353 9.60547 1.17595 9.60547Z" fill="#0E0E0F"/>
</g>
<defs>
<clipPath id="clip0_4613_2012">
<rect width="18.9899" height="18.9899" fill="white" transform="translate(0.58252 0.11084)"/>
</clipPath>
</defs>
</svg>
