<svg width="20" height="20" viewBox="0 0 20 20" fill="none" xmlns="http://www.w3.org/2000/svg">
<g clip-path="url(#clip0_4613_2006)">
<path d="M9.57912 19.4948C14.8203 19.4948 19.0741 15.241 19.0741 9.99983C19.0741 4.75862 14.8203 0.504883 9.57912 0.504883C4.3379 0.504883 0.0841675 4.75862 0.0841675 9.99983C0.0841675 15.241 4.3379 19.4948 9.57912 19.4948ZM13.4341 14.4751C12.7955 14.4751 10.7786 12.2383 5.11016 13.3998C4.96062 13.4386 4.76518 13.4995 4.6544 13.4995C3.93041 13.4995 3.79195 12.4163 4.57053 12.2509C7.70624 11.5586 10.9108 11.6195 13.6437 13.2542C14.2957 13.6704 14.0188 14.4751 13.4341 14.4751ZM14.4651 11.9645C14.3756 11.9408 14.4018 12.0191 13.9927 11.8039C11.5992 10.3875 8.03223 9.81626 4.85775 10.6779C4.67418 10.7278 4.57449 10.7776 4.402 10.7776C3.55457 10.7776 3.32986 9.50293 4.25324 9.24261C7.98476 8.19421 11.9877 8.80584 14.7744 10.4635C15.0846 10.6471 15.2072 10.8852 15.2072 11.2176C15.2033 11.6306 14.882 11.9645 14.4651 11.9645ZM3.68275 6.04202C7.26156 4.99441 12.6776 5.32515 16.0452 7.29061C16.9084 7.7883 16.569 9.04717 15.6511 9.04717L15.6503 9.04638C15.451 9.04638 15.3283 8.99653 15.1558 8.89684C12.4316 7.27003 7.55669 6.87995 4.40279 7.76061C4.26432 7.79859 4.09183 7.85951 3.90826 7.85951C3.40265 7.85951 3.01652 7.46468 3.01652 6.95591C3.01652 6.43606 3.33856 6.14172 3.68275 6.04202Z" fill="#0E0E0F"/>
</g>
<defs>
<clipPath id="clip0_4613_2006">
<rect width="18.9899" height="18.9899" fill="white" transform="translate(0.0841675 0.504883)"/>
</clipPath>
</defs>
</svg>
