<svg width="19" height="20" viewBox="0 0 19 20" fill="none" xmlns="http://www.w3.org/2000/svg">
<g clip-path="url(#clip0_4613_1994)">
<path d="M11.3939 8.48102C11.3939 7.43354 10.5424 6.58203 9.49494 6.58203C8.44745 6.58203 7.59595 7.43354 7.59595 8.48102C7.59595 9.52851 8.44745 10.38 9.49494 10.38C10.5424 10.38 11.3939 9.52851 11.3939 8.48102Z" fill="#0E0E0F"/>
<path d="M9.49496 11.1392C7.6423 11.1392 6.07678 12.0089 6.07678 13.0382C6.07678 16.1252 7.22756 18.524 7.70687 19.004C8.01983 19.3162 8.67079 19.4947 9.49496 19.4947C10.3191 19.4947 10.9701 19.3162 11.2831 19.004C11.7624 18.524 12.9131 16.1252 12.9131 13.0382C12.9131 12.0089 11.3476 11.1392 9.49496 11.1392Z" fill="#0E0E0F"/>
<path d="M9.49492 0.504883C5.09687 0.504883 1.51917 4.08259 1.51917 8.48064C1.51917 11.026 2.74743 13.4347 4.80594 14.9258C4.97381 15.0474 5.21307 15.0124 5.33613 14.8407C5.45994 14.6706 5.42122 14.4336 5.25105 14.3105C3.39004 12.9623 2.27876 10.783 2.27876 8.48064C2.27876 4.50189 5.51617 1.26448 9.49492 1.26448C13.4737 1.26448 16.7111 4.50189 16.7111 8.48064C16.7111 10.783 15.5998 12.9623 13.7388 14.3105C13.5686 14.4336 13.5299 14.6706 13.6537 14.8407C13.7274 14.944 13.8444 14.998 13.9613 14.998C14.0388 14.998 14.117 14.9744 14.1839 14.9258C16.2424 13.4347 17.4707 11.026 17.4707 8.4806C17.4707 4.08259 13.893 0.504883 9.49492 0.504883Z" fill="#0E0E0F"/>
<path d="M9.49493 3.54346C6.77255 3.54346 4.55756 5.75845 4.55756 8.48083C4.55756 9.55869 4.89937 10.5788 5.54655 11.4303C5.67418 11.5975 5.91192 11.6294 6.07901 11.5033C6.24614 11.3764 6.27878 11.1372 6.15193 10.97C5.60578 10.2522 5.31711 9.39082 5.31711 8.48083C5.31711 6.17775 7.19181 4.30305 9.49489 4.30305C11.798 4.30305 13.6727 6.17775 13.6727 8.48083C13.6727 9.39082 13.384 10.2522 12.8379 10.97C12.711 11.1372 12.7436 11.3764 12.9108 11.5033C12.9799 11.5549 13.0604 11.58 13.1409 11.58C13.2549 11.58 13.3688 11.5283 13.4432 11.4303C14.0904 10.5788 14.4322 9.55866 14.4322 8.48079C14.4323 5.75845 12.2173 3.54346 9.49493 3.54346Z" fill="#0E0E0F"/>
</g>
<defs>
<clipPath id="clip0_4613_1994">
<rect width="18.9899" height="18.9899" fill="white" transform="translate(0 0.504883)"/>
</clipPath>
</defs>
</svg>
