<svg width="104" height="31" viewBox="0 0 104 31" fill="none" xmlns="http://www.w3.org/2000/svg">
<path d="M27.1641 8.57324V21.4258L15.5371 27.9072L3.90918 21.4258V8.57324L15.5371 2.0918L27.1641 8.57324Z" stroke="#0E0E0F" stroke-width="3.65576" stroke-linecap="round"/>
<path d="M15.7075 28.3513V14.1923L3.75594 8.24146" stroke="#0E0E0F" stroke-width="3.65576" stroke-linecap="round"/>
<path d="M15.7066 14.3951L27.2028 8.24121" stroke="#0E0E0F" stroke-width="3.65576" stroke-linecap="round"/>
<rect x="34.5718" y="7.66138" width="3.75972" height="1.10868" fill="#0E0E0F"/>
<rect x="34.5718" y="3.78369" width="3.75972" height="1.10868" fill="#0E0E0F"/>
<rect x="38.93" y="3.7832" width="3.75972" height="1.10868" fill="#0E0E0F"/>
<rect x="49.4849" y="3.7832" width="3.75972" height="1.10868" fill="#0E0E0F"/>
<rect x="54.3125" y="3.7832" width="3.75972" height="1.10868" fill="#0E0E0F"/>
<rect x="49.4849" y="7.66113" width="3.75972" height="1.10868" fill="#0E0E0F"/>
<rect x="43.2899" y="3.7832" width="3.75972" height="1.10868" fill="#0E0E0F"/>
<rect x="43.2899" y="5.72192" width="3.75972" height="1.10868" fill="#0E0E0F"/>
<rect x="43.2899" y="7.66113" width="3.75972" height="1.10868" fill="#0E0E0F"/>
<rect x="38.93" y="5.72192" width="3.75972" height="1.10868" fill="#0E0E0F"/>
<rect x="38.93" y="7.66113" width="3.75972" height="1.10868" fill="#0E0E0F"/>
<rect x="34.5718" y="8.76489" width="4.98145" height="1.14837" transform="rotate(-90 34.5718 8.76489)" fill="#0E0E0F"/>
<rect x="37.178" y="8.76489" width="4.98145" height="1.14837" transform="rotate(-90 37.178 8.76489)" fill="#0E0E0F"/>
<rect x="38.93" y="8.76489" width="4.98145" height="1.14837" transform="rotate(-90 38.93 8.76489)" fill="#0E0E0F"/>
<rect x="47.732" y="8.76489" width="4.98145" height="1.14837" transform="rotate(-90 47.732 8.76489)" fill="#0E0E0F"/>
<rect x="53.843" y="8.76489" width="4.98145" height="1.14837" transform="rotate(-90 53.843 8.76489)" fill="#0E0E0F"/>
<rect x="57.2195" y="8.76489" width="4.98145" height="1.14837" transform="rotate(-90 57.2195 8.76489)" fill="#0E0E0F"/>
<rect x="52.092" y="8.77466" width="2.4752" height="1.15372" transform="rotate(-90 52.092 8.77466)" fill="#0E0E0F"/>
<rect x="49.4849" y="8.76489" width="4.98145" height="1.14837" transform="rotate(-90 49.4849 8.76489)" fill="#0E0E0F"/>
<rect x="43.2899" y="6.83618" width="3.05275" height="1.15372" transform="rotate(-90 43.2899 6.83618)" fill="#0E0E0F"/>
<rect x="45.8959" y="8.7749" width="3.05275" height="1.15372" transform="rotate(-90 45.8959 8.7749)" fill="#0E0E0F"/>
<rect x="34.4343" y="10.135" width="12.3159" height="3.63173" fill="#0E0E0F"/>
<rect x="63.7552" y="10.135" width="12.3159" height="3.63173" fill="#0E0E0F"/>
<rect x="77.7207" y="10.135" width="12.3159" height="3.63173" fill="#0E0E0F"/>
<rect x="91.6842" y="10.135" width="12.3159" height="3.63173" fill="#0E0E0F"/>
<rect x="63.7552" y="16.4534" width="12.3159" height="3.63173" fill="#0E0E0F"/>
<rect x="77.7207" y="16.4536" width="12.3159" height="3.63173" fill="#0E0E0F"/>
<rect x="91.6842" y="16.4536" width="12.3159" height="3.63173" fill="#0E0E0F"/>
<rect x="34.4343" y="22.821" width="12.3159" height="3.63173" fill="#0E0E0F"/>
<rect x="63.7552" y="22.821" width="12.3159" height="3.63173" fill="#0E0E0F"/>
<rect x="77.7207" y="22.821" width="12.3159" height="3.63173" fill="#0E0E0F"/>
<rect x="91.6842" y="22.821" width="12.3159" height="3.63173" fill="#0E0E0F"/>
<rect x="49.7901" y="22.821" width="12.3159" height="3.63173" fill="#0E0E0F"/>
<rect x="48.3986" y="26.4529" width="16.3179" height="3.76175" transform="rotate(-90 48.3986 26.4529)" fill="#0E0E0F"/>
<rect x="91.6842" y="26.4529" width="16.3179" height="3.76175" transform="rotate(-90 91.6842 26.4529)" fill="#0E0E0F"/>
<rect x="77.7207" y="26.4529" width="16.3179" height="3.76175" transform="rotate(-90 77.7207 26.4529)" fill="#0E0E0F"/>
<rect x="86.2746" y="26.4529" width="16.3179" height="3.76175" transform="rotate(-90 86.2746 26.4529)" fill="#0E0E0F"/>
<rect x="34.4343" y="26.4529" width="16.3179" height="3.76175" transform="rotate(-90 34.4343 26.4529)" fill="#0E0E0F"/>
<rect x="58.3441" y="26.4529" width="16.3179" height="3.76175" transform="rotate(-90 58.3441 26.4529)" fill="#0E0E0F"/>
</svg>
