<svg width="82" height="28" viewBox="0 0 82 28" fill="none" xmlns="http://www.w3.org/2000/svg">
<path d="M7.56091 0.168945C6.43488 0.168945 5.30884 0.253435 4.18281 0.450454H5.36514C18.9618 1.99871 20.0315 13.9908 8.94026 18.6638C-6.824 25.0539 1.31149 29.8958 10.0944 26.9681C15.8934 25.1383 20.1723 20.2121 21.1575 14.1879C22.5651 6.39018 16.7098 0.168945 7.56091 0.168945Z" fill="#0E0E0F"/>
<path d="M5.28031 5.12305C4.91438 5.12305 4.54839 5.15116 4.18246 5.20746H4.54839C8.93985 5.68606 8.43313 9.14858 5.56182 10.5279C1.56447 12.4984 8.12351 16.0735 10.2066 10.0212C11.3326 6.89651 8.23611 5.12305 5.28031 5.12305Z" fill="#0E0E0F"/>
<path d="M30.3917 6.16486V8.21983H30.448C30.9266 7.40349 31.6585 6.72787 32.5028 6.30565C33.3755 5.91154 34.3046 5.71452 35.2615 5.74263C36.3875 5.71452 37.5136 5.96784 38.5554 6.47455C39.456 6.92497 40.2159 7.5724 40.8353 8.38874C41.4547 9.20515 41.905 10.1622 42.1868 11.1475C42.468 12.2173 42.6371 13.3432 42.6371 14.4411C42.6371 15.5108 42.4965 16.5524 42.1868 17.5658C41.905 18.5229 41.4547 19.4237 40.8639 20.2401C40.2723 21.0002 39.5123 21.6476 38.6396 22.098C37.6827 22.5765 36.613 22.8018 35.5148 22.7736C34.5579 22.7736 33.601 22.5765 32.7561 22.1543C31.9119 21.7602 31.2081 21.1409 30.6732 20.3527H30.6169V27.9814H26.1692V6.13674H30.3917V6.16486ZM36.1628 18.9733C36.6409 18.6918 37.0633 18.2977 37.3452 17.8192C37.6549 17.3124 37.8796 16.7494 37.9924 16.1864C38.1051 15.5671 38.1893 14.9197 38.1615 14.2722C38.1615 13.6247 38.1051 12.9773 37.9638 12.358C37.8518 11.7668 37.5985 11.2038 37.2888 10.6971C36.9791 10.2185 36.5845 9.79628 36.0778 9.51477C35.5434 9.20515 34.8954 9.03624 34.2768 9.06436C33.6288 9.03624 33.0094 9.20515 32.4464 9.51477C31.9682 9.79628 31.5741 10.1904 31.2644 10.6689C30.9548 11.1756 30.7296 11.7387 30.6169 12.3299C30.4762 12.9773 30.4199 13.6247 30.4199 14.3003C30.4199 14.9478 30.4762 15.5953 30.6169 16.2146C30.7296 16.8057 30.9548 17.3406 31.2644 17.8473C32.4186 19.3674 34.5015 19.846 36.1628 18.9733Z" fill="#0E0E0F"/>
<path d="M43.5089 4.0819V0.422363H47.9845V4.0819H43.5089ZM47.9845 6.16507V22.3515H43.5089V6.16507H47.9845Z" fill="#0E0E0F"/>
<path d="M50.1806 8.55759C50.6309 7.88197 51.2224 7.31896 51.926 6.89673C52.6582 6.4745 53.4745 6.16481 54.3187 5.9959C55.1914 5.79888 56.0919 5.68628 56.9932 5.68628C57.8095 5.68628 58.6537 5.74258 59.47 5.85519C60.2585 5.96779 61.0471 6.19299 61.7506 6.5308C62.4264 6.84043 63.0173 7.31895 63.4675 7.91016C63.9463 8.61389 64.1711 9.43023 64.1155 10.2748V18.6918C64.1155 19.3955 64.1433 20.0993 64.2275 20.7749C64.256 21.3097 64.4244 21.8165 64.6785 22.2669H60.1743C60.0894 22.0135 60.0331 21.7602 59.9767 21.5068C59.921 21.2534 59.8925 20.9719 59.8647 20.7186C59.1603 21.4223 58.2883 21.9572 57.3307 22.2387C56.3738 22.5202 55.3883 22.661 54.3751 22.661C53.6429 22.661 52.9115 22.5765 52.2072 22.3795C51.56 22.2106 50.9691 21.9009 50.4625 21.5068C49.9558 21.1127 49.5898 20.5778 49.3079 20.0148C48.9982 19.3392 48.8576 18.6073 48.8855 17.8472C48.8576 17.059 49.0268 16.2709 49.3643 15.567C49.674 15.004 50.0964 14.5255 50.6031 14.1314C51.1375 13.7655 51.7291 13.484 52.3485 13.3432C52.9957 13.1743 53.6715 13.0335 54.3472 12.9209C55.0223 12.8083 55.6702 12.752 56.3174 12.6675C56.909 12.6112 57.4713 12.5268 58.0343 12.386C58.4567 12.3016 58.8792 12.1045 59.2167 11.8512C59.5264 11.5979 59.6677 11.2038 59.6113 10.8097C59.6392 10.4155 59.555 10.0214 59.3858 9.65544C59.2453 9.374 59.0198 9.1488 58.7664 8.97989C58.4853 8.81099 58.1756 8.7265 57.8659 8.6702C57.4998 8.61389 57.1059 8.58578 56.7113 8.58578C55.9799 8.55759 55.2478 8.75469 54.6569 9.1488C54.1217 9.62733 53.7842 10.3029 53.7842 11.0349H49.3365C49.4207 10.1903 49.7018 9.3177 50.1806 8.55759ZM58.9634 14.8351C58.6537 14.9477 58.3725 15.004 58.0628 15.0603C57.7253 15.1166 57.3871 15.1729 57.0496 15.2292C56.6835 15.2855 56.346 15.3137 55.9799 15.37C55.6417 15.4263 55.332 15.5107 54.9944 15.6233C54.6847 15.7078 54.4036 15.8486 54.1496 16.0456C53.9248 16.2145 53.7278 16.4679 53.5865 16.7212C53.4181 17.0309 53.3618 17.3968 53.3618 17.7628C53.3618 18.1006 53.4181 18.4384 53.5865 18.7762C53.7278 19.0296 53.9248 19.2548 54.1496 19.4237C54.4314 19.5926 54.7126 19.7052 55.0223 19.7615C55.3605 19.8178 55.698 19.8459 56.0641 19.8459C56.7677 19.8741 57.4713 19.7333 58.0907 19.3955C58.5417 19.1422 58.907 18.7762 59.1603 18.3539C59.3858 17.988 59.5264 17.5657 59.5828 17.1153C59.6392 16.7775 59.6677 16.4397 59.6677 16.1019V14.441C59.47 14.6099 59.2167 14.7225 58.9919 14.7788V14.8351H58.9634Z" fill="#0E0E0F"/>
<path d="M70.1392 0V8.13549H70.1956C70.7301 7.31908 71.49 6.67164 72.4191 6.30572C73.3482 5.91161 74.3051 5.7427 75.3191 5.7427C77.0638 5.7427 78.7251 6.47462 79.8789 7.76949C80.5547 8.5296 81.0899 9.43035 81.4274 10.4157C81.8498 11.6542 82.0468 12.9492 81.9904 14.2441C82.019 15.539 81.8213 16.8339 81.4274 18.0726C81.0899 19.0578 80.5547 19.9586 79.8789 20.7187C78.7251 22.0136 77.0638 22.7455 75.3191 22.7455C74.2209 22.7455 73.1513 22.5766 72.138 22.1825C71.2089 21.8166 70.4767 21.141 70.0265 20.2683H69.9701V22.3233H65.7478V0H70.1392ZM77.3172 12.3017C77.1766 11.7105 76.9518 11.1476 76.6136 10.6409C76.3039 10.1623 75.91 9.79635 75.4312 9.48666C74.3615 8.92371 73.0949 8.92371 72.0252 9.48666C71.5464 9.76816 71.1247 10.1623 70.8428 10.6409C70.5053 11.1476 70.2798 11.7105 70.1392 12.3017C69.8574 13.5967 69.8574 14.9197 70.1392 16.2146C70.2798 16.8058 70.5053 17.3688 70.8428 17.8755C71.1525 18.3541 71.5464 18.7482 72.0252 19.0297C73.0949 19.5927 74.3615 19.5927 75.4312 19.0297C75.91 18.7482 76.3039 18.3541 76.6136 17.8755C76.9518 17.3688 77.1766 16.8058 77.3172 16.2146C77.6269 14.9197 77.6269 13.5685 77.3172 12.3017Z" fill="#0E0E0F"/>
</svg>
