<svg width="99" height="31" viewBox="0 0 99 31" fill="none" xmlns="http://www.w3.org/2000/svg">
<mask id="mask0_4595_1137" style="mask-type:luminance" maskUnits="userSpaceOnUse" x="0" y="0" width="99" height="31">
<path d="M0 0.739258H98.5714V30.7393H0V0.739258Z" fill="white"/>
</mask>
<g mask="url(#mask0_4595_1137)">
<path fill-rule="evenodd" clip-rule="evenodd" d="M0 6.91699C0 5.94199 0.789643 5.15234 1.76464 5.15234H8.82214C9.79714 5.15234 10.5868 5.94199 10.5868 6.91699V8.68163C10.5868 8.79752 10.5639 8.91227 10.5196 9.01932C10.4752 9.12637 10.4101 9.22363 10.3281 9.30553C10.2461 9.38742 10.1488 9.45235 10.0417 9.4966C9.93459 9.54085 9.81982 9.56356 9.70393 9.56342H0.881786C0.647922 9.56342 0.423636 9.47051 0.258269 9.30515C0.0929021 9.13978 0 8.91549 0 8.68163L0 6.91699ZM10.5857 22.7966C10.5857 22.3102 10.9821 21.9148 11.4686 21.9148H20.2907C20.7782 21.9148 21.1736 22.3102 21.1736 22.7966V24.5613C21.1736 25.5363 20.3829 26.3259 19.4089 26.3259H12.3514C11.3764 26.3259 10.5868 25.5363 10.5868 24.5613L10.5857 22.7966ZM0.882857 11.7695C0.648993 11.7695 0.424707 11.8624 0.25934 12.0278C0.0939736 12.1931 0.00107143 12.4174 0.00107143 12.6513V17.9441C0.00107143 18.9191 0.790714 19.7088 1.76571 19.7088H20.2918C20.4077 19.7089 20.5224 19.6862 20.6296 19.642C20.7367 19.5977 20.834 19.5328 20.916 19.4509C20.998 19.369 21.063 19.2717 21.1074 19.1647C21.1518 19.0576 21.1746 18.9429 21.1746 18.827V13.5341C21.1746 12.5591 20.3839 11.7695 19.41 11.7695H0.882857ZM32.9314 18.1573H34.9714L38.7964 24.5613H43.4336L39.195 17.7202C41.5254 16.9188 42.885 15.1231 42.885 12.5248C42.885 8.88306 40.3361 6.91699 36.2336 6.91699H28.875V24.5613H32.9293L32.9314 18.1573ZM32.9314 14.8552V10.3402H36.015C37.9328 10.3402 38.9036 11.1652 38.9036 12.5977C38.9036 14.0056 37.9328 14.8552 36.015 14.8552H32.9314ZM56.1964 20.8766C55.2493 23.3281 52.9179 24.6159 50.37 24.6159C46.5096 24.6159 43.8879 21.9202 43.8879 17.9388C43.8879 14.1513 46.6071 11.2873 50.2971 11.2873C54.1811 11.2873 56.2929 14.1513 56.2929 17.7695V18.7884H47.625C47.8929 20.5359 48.9364 21.5313 50.4171 21.5313C51.6311 21.5313 52.5782 20.9495 52.9414 19.832L56.1964 20.8766ZM52.4571 16.4088C52.4325 15.2688 51.6803 14.2981 50.2478 14.2981C49.0586 14.2981 48.1361 15.0009 47.7471 16.4088H52.4571ZM58.4946 21.0331C58.4946 23.6548 59.8789 24.5773 62.6464 24.5773C63.5678 24.5773 64.2964 24.5045 64.9768 24.407V21.227C64.6066 21.2756 64.2337 21.2999 63.8603 21.2998C62.8896 21.2998 62.3303 21.1059 62.3303 19.9295V14.7588H64.8311V11.5541H62.3303V8.00984H58.4946V11.5541H56.8682V14.7577H58.4946V21.0331ZM72.4393 11.2327C76.2021 11.2327 78.8486 13.9284 78.8486 17.9098C78.8486 21.8913 76.2021 24.5613 72.4393 24.5613C68.6518 24.5613 66.03 21.8913 66.03 17.9098C66.03 13.9284 68.6518 11.2327 72.4393 11.2327ZM72.4393 14.4138C70.8857 14.4138 69.8893 15.6759 69.8893 17.9098C69.8893 20.1438 70.8857 21.4048 72.4393 21.4048C73.9928 21.4048 74.9882 20.1427 74.9882 17.9098C74.9882 15.677 73.9939 14.4138 72.4393 14.4138ZM92.8361 17.9098C92.8361 13.9284 90.1896 11.2327 86.4268 11.2327C82.6403 11.2327 80.0186 13.9284 80.0186 17.9098C80.0186 21.8913 82.6403 24.5613 86.4268 24.5613C90.1907 24.5613 92.8361 21.8913 92.8361 17.9098ZM83.8789 17.9098C83.8789 15.6759 84.8732 14.4138 86.4268 14.4138C87.9803 14.4138 88.9768 15.6759 88.9768 17.9098C88.9768 20.1438 87.9803 21.4048 86.4268 21.4048C84.8732 21.4048 83.8789 20.1427 83.8789 17.9098ZM94.6864 6.91699H98.5714V24.5613H94.6875L94.6864 6.91699Z" fill="#0E0E0F"/>
</g>
</svg>
