<svg width="123" height="29" viewBox="0 0 123 29" fill="none" xmlns="http://www.w3.org/2000/svg">
<mask id="mask0_4595_1120" style="mask-type:luminance" maskUnits="userSpaceOnUse" x="0" y="0" width="123" height="29">
<path d="M123 0H0V28.9236H123V0Z" fill="white"/>
</mask>
<g mask="url(#mask0_4595_1120)">
<path d="M50.2493 5.88873C48.9618 5.88873 47.8745 6.26871 46.9878 7.02865C46.1013 7.78862 45.4151 8.75972 44.9297 9.94186C44.444 11.1241 44.1485 12.4223 44.043 13.8367C43.9586 15.23 44.0747 16.5811 44.3914 17.8899C44.6448 19.0721 45.0458 20.1381 45.5948 21.0881C46.1434 22.0169 46.7979 22.8086 47.5579 23.463C48.3391 24.1174 49.1938 24.6241 50.1229 24.9829C51.0728 25.3207 52.0437 25.4896 53.036 25.4896C53.9859 25.4896 54.9253 25.3312 55.8541 25.0146C56.7832 24.6768 57.6908 24.1702 58.5776 23.4947C58.8942 23.2413 59.1579 23.1886 59.369 23.3363C59.5169 23.4419 59.5063 23.6741 59.3373 24.033C59.1685 24.3707 58.8519 24.814 58.3873 25.3629C57.9442 25.9118 57.353 26.4501 56.6141 26.9778C55.8753 27.4845 54.9991 27.9278 53.9859 28.3078C52.9728 28.6667 51.8117 28.8461 50.5027 28.8461C48.9195 28.8461 47.4418 28.5717 46.0696 28.0228C44.6974 27.4739 43.494 26.714 42.4597 25.7429C41.4253 24.7507 40.5915 23.5685 39.9582 22.1964C39.3249 20.8242 38.945 19.3148 38.8183 17.6682C38.6916 16.1483 38.8604 14.6389 39.3249 13.1401C39.7894 11.6413 40.5071 10.2902 41.4783 9.08693C42.4703 7.88365 43.7051 6.91257 45.1829 6.17372C46.6606 5.43486 48.3494 5.06543 50.2493 5.06543C51.8961 5.06543 53.3 5.26598 54.4611 5.66707C55.6221 6.06817 56.5721 6.57481 57.3109 7.18701C58.0707 7.77809 58.6196 8.43251 58.9574 9.15026C59.3164 9.8469 59.4958 10.5119 59.4958 11.1452C59.4958 11.7574 59.3267 12.2851 58.9892 12.7284C58.6514 13.1506 58.1762 13.3829 57.5641 13.4251C56.8041 13.4884 56.2343 13.3512 55.8541 13.0134C55.4954 12.6546 55.2102 12.2007 54.9991 11.6518C54.8092 11.0818 54.6404 10.4696 54.4925 9.81523C54.3658 9.1397 54.1547 8.51695 53.8592 7.94698C53.5849 7.35589 53.1627 6.87035 52.5926 6.49037C52.0437 6.08928 51.2628 5.88873 50.2493 5.88873Z" fill="#0E0E0F"/>
<path d="M67.4777 27.58C67.6467 27.6644 67.7732 27.7383 67.8579 27.8017C67.9634 27.865 68.016 27.96 68.016 28.0866C68.016 28.3611 67.8261 28.4772 67.4462 28.435C67.1716 28.4138 66.7812 28.3927 66.2746 28.3716C65.7677 28.3505 65.145 28.34 64.4061 28.34C63.6464 28.34 63.0131 28.3505 62.5062 28.3716C62.0208 28.3927 61.6409 28.4138 61.3663 28.435C60.9653 28.4561 60.7648 28.34 60.7648 28.0866C60.7648 27.96 60.8068 27.865 60.8915 27.8017C60.997 27.7383 61.134 27.6644 61.3031 27.58C61.6197 27.4744 61.8097 27.2528 61.8729 26.915C61.9576 26.5773 61.9996 26.1339 61.9996 25.5851V9.81574C61.9996 9.26687 61.9576 8.83411 61.8729 8.51746C61.8097 8.17969 61.6303 7.95804 61.3346 7.85248C61.1658 7.76804 61.0285 7.69416 60.9229 7.63083C60.8174 7.54639 60.7648 7.44084 60.7648 7.31417C60.7648 7.06085 60.9441 6.88141 61.3031 6.77586C61.5354 6.73364 61.8309 6.67028 62.1896 6.58584C62.5485 6.50143 62.9496 6.39588 63.393 6.26922C63.8363 6.12145 64.3006 5.96312 64.7863 5.79424C65.2717 5.60425 65.7468 5.38259 66.2111 5.12924C66.3801 5.04482 66.5171 5.03427 66.6227 5.0976C66.7283 5.16093 66.7812 5.28759 66.7812 5.47758V25.5851C66.7812 26.1339 66.8232 26.5773 66.9079 26.915C66.9923 27.2528 67.1822 27.4744 67.4777 27.58Z" fill="#0E0E0F"/>
<path d="M73.3004 8.96055C72.414 8.96055 71.6645 8.71778 71.0524 8.23225C70.4611 7.72557 70.1656 7.11341 70.1656 6.39566C70.1656 5.6568 70.4611 5.0446 71.0524 4.55907C71.6645 4.05242 72.414 3.79907 73.3004 3.79907C74.166 3.79907 74.9049 4.05242 75.517 4.55907C76.1291 5.0446 76.4355 5.6568 76.4355 6.39566C76.4355 7.11341 76.1291 7.72557 75.517 8.23225C74.9049 8.71778 74.166 8.96055 73.3004 8.96055ZM76.5937 27.5798C76.7624 27.6642 76.8997 27.7381 77.0053 27.8014C77.1108 27.8648 77.1638 27.9598 77.1638 28.0864C77.1638 28.3397 76.9633 28.4558 76.5619 28.4347C76.2664 28.4136 75.876 28.3925 75.3903 28.3714C74.9049 28.3503 74.2821 28.3397 73.5221 28.3397C72.7833 28.3397 72.1605 28.3503 71.6539 28.3714C71.1474 28.3925 70.7566 28.4136 70.4823 28.4347C70.0813 28.4558 69.8807 28.3397 69.8807 28.0864C69.8807 27.9598 69.9334 27.8648 70.0389 27.8014C70.1445 27.7381 70.2818 27.6642 70.4505 27.5798C70.746 27.4742 70.9257 27.2526 70.9889 26.9148C71.0733 26.577 71.1156 26.1337 71.1156 25.5849V15.072C71.1156 14.5231 71.0733 14.0903 70.9889 13.7737C70.9257 13.4359 70.746 13.2037 70.4505 13.077C70.2818 13.0137 70.1445 12.9504 70.0389 12.8871C69.9334 12.8026 69.8807 12.6865 69.8807 12.5387C69.8807 12.3065 70.0707 12.1271 70.4505 12.0004C70.6616 11.9582 70.9468 11.8949 71.3055 11.8104C71.6645 11.726 72.0656 11.6204 72.5089 11.4938C72.9523 11.3671 73.4166 11.2088 73.9023 11.0188C74.3877 10.8288 74.8625 10.6177 75.3271 10.3855C75.4958 10.3011 75.6331 10.2905 75.7387 10.3538C75.8654 10.4172 75.9286 10.5333 75.9286 10.7021V25.5849C75.9286 26.1337 75.9604 26.577 76.0236 26.9148C76.1083 27.2526 76.2982 27.4742 76.5937 27.5798Z" fill="#0E0E0F"/>
<path d="M87.8768 10.7976C87.0956 10.8187 86.4097 11.1036 85.8184 11.6525C85.2275 12.2014 84.7523 12.9086 84.3936 13.7741C84.0346 14.6396 83.8024 15.6213 83.6968 16.719C83.6124 17.8167 83.6865 18.9461 83.9185 20.1072C84.0876 21.0571 84.383 21.891 84.8052 22.6088C85.2274 23.3265 85.734 23.9387 86.3253 24.4453C86.9374 24.9309 87.6128 25.3003 88.3516 25.5536C89.0905 25.807 89.84 25.9336 90.6 25.9336C91.2333 25.9336 91.8666 25.8492 92.4999 25.6803C93.1544 25.4903 93.7665 25.2053 94.3366 24.8253C94.6741 24.6564 94.917 24.6353 95.0649 24.762C95.2336 24.9309 95.2019 25.1736 94.9699 25.4903C94.8008 25.7647 94.5265 26.1025 94.1464 26.5036C93.7877 26.8836 93.3231 27.253 92.7533 27.6119C92.2044 27.9496 91.5394 28.2346 90.7584 28.4668C89.9984 28.7201 89.1328 28.8468 88.1617 28.8468C86.8107 28.8468 85.5759 28.6146 84.4568 28.1502C83.3381 27.6858 82.3776 27.0525 81.5755 26.2503C80.7731 25.4481 80.1292 24.4876 79.6438 23.3687C79.1581 22.2499 78.8732 21.0466 78.7888 19.7589C78.7044 18.5556 78.8521 17.3734 79.2322 16.2124C79.6121 15.0513 80.1927 14.0169 80.9737 13.1091C81.7548 12.1803 82.726 11.4309 83.887 10.8609C85.0481 10.2909 86.3779 9.99539 87.8768 9.97428C89.1855 9.95317 90.2939 10.0904 91.2015 10.3859C92.1094 10.6814 92.8483 11.072 93.4181 11.5575C93.9882 12.022 94.3892 12.5392 94.6215 13.1091C94.8749 13.658 94.9908 14.1752 94.9699 14.6607C94.9699 15.1463 94.8432 15.5579 94.5898 15.8957C94.3366 16.2335 93.9988 16.4129 93.5766 16.434C92.9221 16.4551 92.4367 16.3285 92.12 16.054C91.8034 15.7796 91.5605 15.4313 91.3917 15.0091C91.2227 14.5869 91.0854 14.1224 90.9798 13.6158C90.8955 13.1091 90.7479 12.6447 90.5368 12.2225C90.3257 11.8003 90.0196 11.452 89.6183 11.1776C89.2172 10.882 88.6368 10.7554 87.8768 10.7976Z" fill="#0E0E0F"/>
<path d="M114.139 27.6117C114.329 27.675 114.466 27.7383 114.55 27.8017C114.656 27.865 114.709 27.9705 114.709 28.1183C114.709 28.3505 114.508 28.4561 114.107 28.435C113.917 28.4138 113.579 28.4033 113.094 28.4033C112.608 28.3822 112.06 28.3716 111.447 28.3716C110.877 28.3716 110.392 28.3822 109.991 28.4033C109.611 28.4033 109.315 28.4138 109.104 28.435C108.766 28.4561 108.545 28.3189 108.439 28.0233C108.376 27.9178 108.365 27.77 108.407 27.58C108.365 27.3056 108.26 27.0206 108.091 26.725C107.943 26.4084 107.774 26.0706 107.584 25.7117L104.069 18.967L102.423 21.2153V25.5851C102.423 26.1339 102.465 26.5773 102.549 26.915C102.634 27.2528 102.824 27.4744 103.119 27.58C103.288 27.6644 103.415 27.7383 103.499 27.8017C103.605 27.865 103.657 27.96 103.657 28.0866C103.657 28.3611 103.468 28.4772 103.088 28.435C102.813 28.4138 102.423 28.3927 101.916 28.3716C101.409 28.3505 100.786 28.34 100.048 28.34C99.2878 28.34 98.6545 28.3505 98.1476 28.3716C97.6622 28.3927 97.2823 28.4138 97.0077 28.435C96.6067 28.4561 96.4062 28.34 96.4062 28.0866C96.4062 27.96 96.4485 27.865 96.5329 27.8017C96.6385 27.7383 96.7755 27.6644 96.9445 27.58C97.2612 27.4744 97.4511 27.2528 97.5143 26.915C97.599 26.5773 97.641 26.1339 97.641 25.5851V9.81574C97.641 9.26687 97.599 8.83411 97.5143 8.51746C97.4511 8.17969 97.2718 7.95804 96.9763 7.85248C96.8072 7.76804 96.6699 7.69416 96.5644 7.63083C96.4588 7.54639 96.4062 7.44084 96.4062 7.31417C96.4062 7.06085 96.5855 6.88141 96.9445 6.77586C97.1768 6.73364 97.4723 6.67028 97.831 6.58584C98.19 6.50143 98.591 6.39588 99.0344 6.26922C99.4778 6.12145 99.942 5.96312 100.428 5.79424C100.913 5.60425 101.388 5.38259 101.853 5.12924C102.022 5.04482 102.159 5.03427 102.264 5.0976C102.37 5.16093 102.423 5.28759 102.423 5.47758V19.5053L107.996 11.7473C108.333 11.2829 108.682 10.9135 109.041 10.639C109.421 10.3435 109.79 10.1324 110.149 10.0057C110.529 9.85796 110.888 9.77352 111.226 9.75241C111.584 9.73129 111.912 9.75241 112.207 9.81574C112.883 9.96351 113.347 10.2379 113.6 10.639C113.875 11.0401 113.98 11.4623 113.917 11.9056C113.854 12.3279 113.643 12.7078 113.284 13.0456C112.925 13.3834 112.45 13.5522 111.859 13.5522C111.416 13.5522 111.035 13.4467 110.719 13.2356C110.402 13.0245 110.086 12.8767 109.769 12.7923C109.473 12.6867 109.157 12.7184 108.819 12.8873C108.481 13.0562 108.069 13.51 107.584 14.2489L106.761 15.3255L112.429 25.6167C112.745 26.1867 113.02 26.6406 113.252 26.9784C113.505 27.295 113.801 27.5061 114.139 27.6117Z" fill="#0E0E0F"/>
<path d="M122.461 27.58C122.63 27.6644 122.757 27.7383 122.841 27.8017C122.946 27.865 122.999 27.96 122.999 28.0866C122.999 28.3611 122.809 28.4772 122.429 28.435C122.155 28.4138 121.764 28.3927 121.258 28.3716C120.751 28.3505 120.128 28.34 119.389 28.34C118.629 28.34 117.996 28.3505 117.49 28.3716C117.004 28.3927 116.624 28.4138 116.349 28.435C115.948 28.4561 115.748 28.34 115.748 28.0866C115.748 27.96 115.79 27.865 115.875 27.8017C115.98 27.7383 116.117 27.6644 116.286 27.58C116.603 27.4744 116.793 27.2528 116.856 26.915C116.941 26.5773 116.983 26.1339 116.983 25.5851V9.81574C116.983 9.26687 116.941 8.83411 116.856 8.51746C116.793 8.17969 116.613 7.95804 116.318 7.85248C116.149 7.76804 116.012 7.69416 115.906 7.63083C115.801 7.54639 115.748 7.44084 115.748 7.31417C115.748 7.06085 115.927 6.88141 116.286 6.77586C116.518 6.73364 116.814 6.67028 117.173 6.58584C117.532 6.50143 117.933 6.39588 118.376 6.26922C118.819 6.12145 119.284 5.96312 119.769 5.79424C120.255 5.60425 120.73 5.38259 121.194 5.12924C121.363 5.04482 121.5 5.03427 121.606 5.0976C121.712 5.16093 121.764 5.28759 121.764 5.47758V25.5851C121.764 26.1339 121.807 26.5773 121.891 26.915C121.975 27.2528 122.165 27.4744 122.461 27.58Z" fill="#0E0E0F"/>
<mask id="mask1_4595_1120" style="mask-type:luminance" maskUnits="userSpaceOnUse" x="0" y="0" width="30" height="29">
<path d="M29.5515 0H0V28.9236H29.5515V0Z" fill="white"/>
</mask>
<g mask="url(#mask1_4595_1120)">
<path d="M22.9347 15.4363L28.2275 15.4363C28.9583 15.4363 29.5507 16.0287 29.5507 16.7595V27.5655C29.5507 28.2963 28.9583 28.8888 28.2275 28.8888H22.9347C22.2039 28.8888 21.6115 28.2963 21.6115 27.5656V16.7595C21.6115 16.0288 22.2039 15.4363 22.9347 15.4363Z" fill="#0E0E0F"/>
<path d="M9.72338 0.925429C10.3159 0.332886 11.1196 0 11.9575 0H23.0852C23.7557 0 24.1077 0.795681 23.6568 1.29183L14.4042 11.4715C14.1106 11.7946 13.9479 12.2156 13.9479 12.6522V23.4489V26.4025V27.6221C13.9479 28.341 13.3651 28.9236 12.6463 28.9236H1.30155C0.582723 28.9236 0 28.341 0 27.6221V11.5653C0 11.1195 0.171517 10.6909 0.478999 10.3682L4.48418 6.16464L9.72338 0.925429Z" fill="#0E0E0F"/>
</g>
</g>
</svg>
