<svg width="105" height="30" viewBox="0 0 105 30" fill="none" xmlns="http://www.w3.org/2000/svg">
<path fill-rule="evenodd" clip-rule="evenodd" d="M48.2059 18.3257C47.4756 18.4942 47.0978 18.2695 47.0978 17.7857C47.0978 17.1229 47.7831 16.8576 48.7622 16.8576C49.1928 16.8576 49.5991 16.8948 49.5991 16.8948C49.5991 17.1785 48.9825 18.1467 48.2059 18.3257ZM48.9491 11.6898C46.6113 11.6898 44.9328 12.5495 44.9328 12.5495V15.0767C44.9328 15.0767 46.7859 14.0114 48.2894 14.0114C49.4887 14.0114 49.6362 14.6586 49.5819 15.1954C49.5819 15.1954 49.2356 15.1039 48.18 15.1039C45.6916 15.1039 44.436 16.2348 44.436 18.0479C44.436 19.7679 45.8472 20.4867 47.0366 20.4867C48.7716 20.4867 49.5347 19.3204 49.7687 18.7673C49.9315 18.3835 49.9616 18.1248 50.1072 18.1248C50.2744 18.1248 50.2181 18.3104 50.2097 18.6923C50.1959 19.3613 50.2278 19.867 50.3337 20.2932H52.6347V16.1545C52.6347 13.5704 51.7203 11.6898 48.9491 11.6898Z" fill="#0E0E0F"/>
<path fill-rule="evenodd" clip-rule="evenodd" d="M64.093 16.0924C64.093 15.3365 64.7958 14.6481 66.0858 14.6481C67.4911 14.6481 68.622 15.3249 68.8755 15.4787V12.5531C68.8755 12.5531 67.9823 11.6931 65.787 11.6931C63.473 11.6931 61.5458 13.0471 61.5458 15.9618C61.5458 18.8762 63.2949 20.4924 65.7808 20.4924C67.723 20.4924 68.8805 19.4252 68.8805 19.4252V16.6468C68.5142 16.8515 67.4939 17.5599 66.0999 17.5599C64.6239 17.5599 64.093 16.8806 64.093 16.0924ZM33.34 11.8846C33.3403 11.8865 33.4869 12.5153 33.2938 13.3375C33.1953 13.7556 33.0144 14.1112 33.2328 14.1112C33.3835 14.1112 33.3838 13.9862 33.5797 13.5381C33.8663 12.8831 34.4703 11.6909 35.8819 11.6909C37.2238 11.6909 37.8559 12.5062 38.0653 13.2696C38.2247 13.8496 38.0853 14.1112 38.2797 14.1112C38.4178 14.1112 38.4656 13.8103 38.6356 13.4296C38.9409 12.7478 39.605 11.6909 40.9481 11.6909C42.9747 11.6909 43.7484 13.1543 43.7484 15.3496V20.2962H40.7378V15.7359C40.7378 14.9756 40.615 14.2381 39.9219 14.2381C39.2797 14.2381 38.9803 15.3762 38.9803 16.1109V20.298H35.9144V15.7362C35.9144 14.7634 35.7772 14.2384 35.0935 14.2384C34.5016 14.2384 34.1563 15.2856 34.1563 16.1112V20.2965H31.1025V11.8846H33.34ZM53.6368 11.8962C53.638 11.8968 54.1577 12.1965 55.1665 12.1965C56.1771 12.1965 56.6902 11.8962 56.6902 11.8962V20.2984H53.6368V11.8962ZM78.8457 11.8962C78.847 11.8968 79.3667 12.1965 80.3757 12.1965C81.386 12.1965 81.8995 11.8962 81.8995 11.8962V20.2984H78.8457V11.8962ZM60.7321 9.3381V20.2984H57.6783V9.3381H60.7321ZM72.5045 9.3381C72.5048 9.33903 72.6311 9.65403 72.6311 10.5909C72.6311 11.9743 72.3301 13.1003 72.188 13.5293C72.1126 13.7565 71.9783 14.1071 72.1711 14.1134C72.2823 14.1168 72.3492 13.9493 72.4854 13.6587C72.6211 13.3678 73.2936 11.6928 75.0611 11.6928C77.4957 11.6928 77.8539 13.6865 77.8539 15.8456V20.298H74.8001V15.6628C74.8001 14.7121 74.6007 14.2399 73.9636 14.2399C73.1942 14.2399 72.9223 15.4312 72.9223 16.1131V20.298H69.8686V9.33779L72.5045 9.3381ZM85.1685 11.8846C85.1688 11.8865 85.3154 12.5153 85.1223 13.3375C85.0238 13.7556 84.8429 14.1112 85.0613 14.1112C85.2119 14.1112 85.2122 13.9862 85.4082 13.5381C85.6944 12.8831 86.2988 11.6909 87.7104 11.6909C89.1135 11.6909 89.67 12.51 89.8938 13.2696C90.0438 13.7787 89.9138 14.1112 90.1082 14.1112C90.2463 14.1112 90.2941 13.8103 90.4641 13.4296C90.7688 12.7478 91.4335 11.6909 92.7766 11.6909C94.8031 11.6909 95.5769 13.1543 95.5769 15.3496V20.2962H92.5663V15.7359C92.5663 14.9756 92.4435 14.2381 91.7504 14.2381C91.1082 14.2381 90.8085 15.3762 90.8085 16.1109V20.298H87.7426V15.7362C87.7426 14.7634 87.606 14.2384 86.9219 14.2384C86.3301 14.2384 85.9847 15.2856 85.9847 16.1112V20.2965H82.931V11.8846H85.1685ZM55.1543 9.2531C54.1224 9.2531 53.2852 9.79935 53.2852 10.4731C53.2852 11.1468 54.1221 11.6931 55.1543 11.6931C56.1868 11.6931 57.0237 11.1468 57.0237 10.4731C57.0237 9.79935 56.1871 9.2531 55.1543 9.2531ZM80.3635 9.2531C79.3313 9.2531 78.4942 9.79935 78.4942 10.4731C78.4942 11.1468 79.331 11.6931 80.3635 11.6931C81.3957 11.6931 82.2329 11.1468 82.2329 10.4731C82.2329 9.79935 81.396 9.2531 80.3635 9.2531Z" fill="#0E0E0F"/>
<path fill-rule="evenodd" clip-rule="evenodd" d="M100.779 18.4857C100.079 18.4857 99.5636 17.5979 99.5636 16.3607C99.5636 15.1592 100.092 14.2364 100.755 14.2364C101.604 14.2364 101.966 15.0154 101.966 16.3607C101.966 17.7604 101.632 18.4857 100.779 18.4857ZM101.616 11.688C100.047 11.688 99.3277 12.8645 99.0152 13.5348C98.8086 13.9776 98.8195 14.1079 98.6683 14.1079C98.4505 14.1079 98.6314 13.7523 98.7295 13.3342C98.9233 12.5108 98.7761 11.8817 98.7761 11.8817H96.5399V22.6138H99.5923V19.2114C99.9533 19.8242 100.622 20.4788 101.654 20.4788C103.862 20.4788 104.973 18.611 104.973 16.0876C104.973 13.2276 103.643 11.688 101.617 11.688" fill="#0E0E0F"/>
<path fill-rule="evenodd" clip-rule="evenodd" d="M20.3077 14.2274C20.513 14.203 20.7096 14.2018 20.8905 14.2274C20.9952 13.9874 21.013 13.5739 20.919 13.1236C20.7793 12.4543 20.5899 12.0493 20.1987 12.1124C19.8074 12.1755 19.793 12.6605 19.933 13.3296C20.0118 13.7061 20.1518 14.028 20.3077 14.2274Z" fill="#0E0E0F"/>
<path fill-rule="evenodd" clip-rule="evenodd" d="M16.9511 14.7571C17.2308 14.8799 17.403 14.9615 17.4702 14.8902C17.5136 14.8458 17.5005 14.7612 17.4336 14.6521C17.2955 14.4268 17.0115 14.198 16.7099 14.0696C16.0936 13.8043 15.3583 13.8924 14.7912 14.2999C14.604 14.4371 14.4265 14.6271 14.4518 14.7424C14.4599 14.7796 14.488 14.8077 14.5537 14.8171C14.708 14.8346 15.2474 14.5621 15.869 14.524C16.3074 14.4971 16.6711 14.6343 16.9511 14.7571Z" fill="#0E0E0F"/>
<path fill-rule="evenodd" clip-rule="evenodd" d="M16.3894 15.0784C16.0247 15.1359 15.8238 15.2562 15.6947 15.3677C15.5847 15.464 15.5166 15.5706 15.5172 15.6452C15.5175 15.6809 15.5328 15.7015 15.545 15.7118C15.5616 15.7265 15.5813 15.7346 15.605 15.7346C15.6872 15.7346 15.8719 15.6606 15.8719 15.6606C16.3791 15.479 16.7138 15.5012 17.0453 15.5387C17.2285 15.5593 17.3153 15.5706 17.3553 15.5077C17.3672 15.4896 17.3816 15.4506 17.345 15.3912C17.2597 15.2527 16.8913 15.0187 16.3894 15.0784Z" fill="#0E0E0F"/>
<path fill-rule="evenodd" clip-rule="evenodd" d="M19.1751 16.2572C19.4226 16.3788 19.6951 16.331 19.7838 16.1506C19.8726 15.9703 19.7438 15.7253 19.4963 15.6038C19.2488 15.4822 18.9763 15.53 18.8876 15.7103C18.7988 15.891 18.9276 16.1356 19.1751 16.2572Z" fill="#0E0E0F"/>
<path fill-rule="evenodd" clip-rule="evenodd" d="M20.7665 14.867C20.5656 14.8635 20.3987 15.0842 20.394 15.3601C20.3893 15.636 20.5487 15.862 20.7496 15.8654C20.9506 15.8689 21.1175 15.6482 21.1221 15.3723C21.1268 15.0967 20.9675 14.8704 20.7665 14.867Z" fill="#0E0E0F"/>
<path fill-rule="evenodd" clip-rule="evenodd" d="M7.26038 19.8387C7.21038 19.7758 7.12819 19.7949 7.04851 19.8137C6.99288 19.8268 6.93007 19.8412 6.86101 19.8402C6.71319 19.8374 6.58788 19.7743 6.51757 19.6662C6.42601 19.5255 6.43132 19.3159 6.53226 19.0759L6.57944 18.9684C6.74069 18.6065 7.01038 18.0012 6.70757 17.4243C6.47945 16.9899 6.10757 16.7196 5.66039 16.6627C5.23102 16.6084 4.78914 16.7674 4.50727 17.0784C4.06258 17.569 3.9929 18.2368 4.07883 18.4727C4.11039 18.559 4.15977 18.583 4.19539 18.588C4.27102 18.598 4.38289 18.543 4.45289 18.3546L4.47289 18.2934C4.50414 18.1937 4.56227 18.008 4.65758 17.8593C4.77258 17.6799 4.95133 17.5565 5.16133 17.5112C5.37508 17.4652 5.59383 17.5062 5.77695 17.6262C6.08851 17.8299 6.20851 18.2118 6.07539 18.5759C6.00664 18.7643 5.89476 19.1246 5.91945 19.4205C5.96945 20.0196 6.33788 20.2602 6.66882 20.2858C6.99069 20.298 7.21569 20.1171 7.27257 19.9852C7.306 19.9071 7.27788 19.8596 7.25944 19.8393" fill="#0E0E0F"/>
<path fill-rule="evenodd" clip-rule="evenodd" d="M10.3218 8.83568C11.3718 7.62257 12.664 6.56789 13.8218 5.9757C13.8618 5.95508 13.9043 5.99852 13.8827 6.03789C13.7908 6.20445 13.6137 6.56101 13.5577 6.83132C13.549 6.87351 13.5949 6.90507 13.6305 6.88101C14.3508 6.39008 15.6037 5.86383 16.7027 5.79633C16.7499 5.79351 16.7727 5.85383 16.7352 5.88289C16.568 6.01102 16.3852 6.18852 16.2518 6.36789C16.229 6.39851 16.2505 6.44226 16.2886 6.44258C17.0602 6.4482 18.148 6.7182 18.8571 7.11601C18.9049 7.14288 18.8708 7.23569 18.8171 7.22351C17.7443 6.97757 15.9883 6.79101 14.164 7.23601C12.5355 7.6332 11.2924 8.24663 10.3859 8.906C10.3399 8.93944 10.2846 8.8785 10.3218 8.83568ZM15.5505 20.5894L15.5508 20.59L15.5515 20.5913L15.5505 20.5894ZM19.8799 21.1003C19.9111 21.0872 19.9324 21.0519 19.9289 21.0166C19.9246 20.9731 19.8858 20.9416 19.8424 20.9459C19.8424 20.9459 17.6021 21.2775 15.4855 20.5028C15.7161 19.7534 16.329 20.0241 17.2555 20.0988C18.9255 20.1984 20.4224 19.9544 21.5286 19.6369C22.4871 19.3619 23.7461 18.8194 24.7239 18.0475C25.0536 18.7719 25.1702 19.5694 25.1702 19.5694C25.1702 19.5694 25.4255 19.5238 25.6389 19.655C25.8405 19.7791 25.9883 20.0369 25.8873 20.7038C25.6817 21.9494 25.1523 22.9606 24.2624 23.8909C23.7205 24.474 23.063 24.9809 22.3105 25.3497C21.9108 25.5597 21.4855 25.7412 21.0358 25.8878C17.6808 26.9837 14.2465 25.779 13.1396 23.1922C13.0512 22.9978 12.9765 22.7941 12.9177 22.5812C12.4462 20.8766 12.8465 18.8313 14.0983 17.5438C14.1755 17.4619 14.2543 17.3647 14.2543 17.2431C14.2543 17.1416 14.1896 17.0344 14.1337 16.9581C13.6955 16.3228 12.1784 15.2403 12.483 13.1454C12.7018 11.6404 14.018 10.5804 15.2452 10.6432L15.5562 10.661C16.088 10.6926 16.5518 10.7607 16.9896 10.7791C17.7224 10.811 18.3811 10.7044 19.1618 10.0541C19.4249 9.83474 19.6361 9.64443 19.9933 9.58412C20.0308 9.57756 20.1243 9.54412 20.3108 9.55287C20.5014 9.56319 20.6827 9.61537 20.8455 9.72381C21.4711 10.1401 21.5599 11.1485 21.5924 11.886C21.6108 12.3069 21.6617 13.3257 21.6792 13.6182C21.7189 14.2869 21.8949 14.381 22.2505 14.4982C22.4505 14.5641 22.6361 14.6132 22.9099 14.69C23.738 14.9225 24.2289 15.1585 24.5386 15.4616C24.7233 15.651 24.8092 15.8522 24.8358 16.0441C24.9333 16.7566 24.2827 17.6366 22.5599 18.4363C20.6767 19.3103 18.3921 19.5316 16.8136 19.3556L16.2605 19.2931C14.998 19.1231 14.2777 20.7547 15.0355 21.8728C15.524 22.5934 16.8543 23.0622 18.1852 23.0625C21.2367 23.0628 23.5824 21.7597 24.4549 20.6344L24.5245 20.535C24.5677 20.4703 24.532 20.4347 24.4786 20.4713C23.7658 20.9591 20.5996 22.8956 17.2127 22.3128C17.2127 22.3128 16.8011 22.245 16.4255 22.0991C16.1271 21.9828 15.5021 21.6953 15.4262 21.0544C18.1593 21.8997 19.8799 21.1003 19.8799 21.1003ZM4.86777 14.605C3.91716 14.7897 3.07935 15.3285 2.56716 16.0728C2.26091 15.8175 1.6906 15.3232 1.58967 15.1303C0.771858 13.5772 2.48216 10.5579 3.67715 8.85256C6.63026 4.63852 11.2552 1.44885 13.3962 2.0276C13.7443 2.12603 14.8971 3.46259 14.8971 3.46259C14.8971 3.46259 12.7568 4.65008 10.7721 6.30539C8.09776 8.36444 6.07808 11.3572 4.86777 14.605ZM6.46495 21.7316C6.3212 21.7562 6.17433 21.7659 6.02621 21.7622C4.5959 21.7237 3.05122 20.4363 2.89779 18.9094C2.7281 17.2216 3.59059 15.9228 5.11746 15.6147C5.29996 15.5778 5.52058 15.5566 5.75839 15.5691C6.61401 15.616 7.87463 16.2728 8.16244 18.1366C8.41744 19.7872 8.01244 21.4678 6.46495 21.7316ZM25.8386 18.7428C25.8264 18.6994 25.7464 18.4078 25.6367 18.0563C25.527 17.7044 25.4136 17.4572 25.4136 17.4572C25.8536 16.7988 25.8614 16.2097 25.8027 15.8763C25.7402 15.4628 25.568 15.1107 25.2211 14.7463C24.8742 14.3822 24.1645 14.0091 23.1674 13.7291L22.6442 13.5838C22.6417 13.5622 22.6167 12.3504 22.5942 11.83C22.5777 11.4538 22.5455 10.8666 22.3633 10.2885C22.1461 9.50568 21.768 8.82069 21.2958 8.38256C22.5989 7.03195 23.4124 5.54383 23.4102 4.26759C23.4064 1.81291 20.3918 1.0701 16.6765 2.60853L15.8893 2.9426C15.8858 2.93916 14.4662 1.54635 14.4449 1.5276C10.209 -2.16707 -3.03468 12.5538 1.19936 16.1291L2.12467 16.9131C1.88467 17.535 1.79029 18.2475 1.86748 19.0134C1.96623 19.9975 2.47373 20.9406 3.29653 21.6694C4.07747 22.3612 5.10433 22.7994 6.10058 22.7984C7.74838 26.5956 11.5134 28.925 15.9277 29.0562C20.663 29.1968 24.638 26.975 26.3036 22.9837C26.4127 22.7037 26.8748 21.4416 26.8748 20.3272C26.8748 19.2075 26.2417 18.7428 25.8386 18.7428Z" fill="#0E0E0F"/>
</svg>
