<svg width="27" height="26" viewBox="0 0 27 26" fill="none" xmlns="http://www.w3.org/2000/svg">
<path d="M24.8762 13.2526C24.8762 12.3174 24.7988 11.6349 24.6312 10.9271H13.7334V15.1484H20.1302C20.0012 16.1975 19.3048 17.7774 17.7572 18.839L17.7355 18.9803L21.1812 21.5962L21.4199 21.6196C23.6123 19.6353 24.8762 16.7157 24.8762 13.2526Z" fill="#4285F4"/>
<path d="M13.7323 24.375C16.8662 24.375 19.4971 23.3638 21.4188 21.6197L17.7561 18.839C16.7759 19.5089 15.4604 19.9766 13.7323 19.9766C10.6629 19.9766 8.05778 17.9923 7.12912 15.2496L6.993 15.261L3.41014 17.9784L3.36328 18.106C5.27198 21.8218 9.19261 24.375 13.7323 24.375Z" fill="#34A853"/>
<path d="M7.12989 15.2497C6.88485 14.5419 6.74304 13.7835 6.74304 13C6.74304 12.2163 6.88485 11.458 7.117 10.7502L7.11051 10.5995L3.48273 7.83847L3.36404 7.8938C2.57737 9.43576 2.12598 11.1673 2.12598 13C2.12598 14.8326 2.57737 16.5641 3.36404 18.106L7.12989 15.2497Z" fill="#FBBC05"/>
<path d="M13.7324 6.0233C15.9119 6.0233 17.3821 6.94594 18.2204 7.71696L21.4962 4.5825C19.4844 2.74987 16.8663 1.625 13.7324 1.625C9.19265 1.625 5.27199 4.17804 3.36328 7.89384L7.11625 10.7503C8.0578 8.00763 10.6629 6.0233 13.7324 6.0233Z" fill="#EB4335"/>
</svg>
