<svg width="29" height="29" viewBox="0 0 29 29" fill="none" xmlns="http://www.w3.org/2000/svg">
<g clip-path="url(#clip0_4703_8399)">
<path d="M2.5588 0H26.4411C27.8543 0 28.9999 1.14561 28.9999 2.5588V26.4411C28.9999 27.8543 27.8543 28.9999 26.4411 28.9999H2.5588C1.14561 28.9999 0 27.8543 0 26.4411V2.5588C0 1.14561 1.14561 0 2.5588 0ZM5.9706 23.4559H13.647C14.1181 23.4559 14.5 23.074 14.5 22.603C14.5 22.1319 14.1181 21.75 13.647 21.75H5.9706C5.49952 21.75 5.11765 22.1319 5.11765 22.603C5.11765 23.074 5.49952 23.4559 5.9706 23.4559ZM10.0843 14.351L11.5716 18.2179C11.82 18.8638 12.6935 18.9606 13.0774 18.3849L14.53 16.2058H23.0294C23.5005 16.2058 23.8823 15.824 23.8823 15.3529C23.8823 14.8818 23.5005 14.5 23.0294 14.5H14.0736C13.7884 14.5 13.522 14.6426 13.3638 14.8798L12.5721 16.0674L11.0314 12.0615C10.7733 11.3903 9.8515 11.3201 9.49473 11.9445L8.03442 14.5H5.97055C5.49947 14.5 5.11759 14.8819 5.11759 15.353C5.11759 15.824 5.49947 16.2059 5.97055 16.2059H8.52934C8.83543 16.2059 9.11806 16.0419 9.26992 15.7761L10.0843 14.351ZM15.6284 6.24814L17.1157 10.1151C17.3641 10.7609 18.2376 10.8577 18.6215 10.282L20.0741 8.10295H23.0294C23.5005 8.10295 23.8823 7.72108 23.8823 7.25C23.8823 6.77892 23.5005 6.39705 23.0294 6.39705H19.6177C19.3325 6.39705 19.0661 6.53961 18.9079 6.77688L18.1162 7.96441L16.5755 3.9585C16.3174 3.28737 15.3956 3.21719 15.0388 3.84154L13.5785 6.39705H5.97055C5.49947 6.39705 5.11759 6.77892 5.11759 7.25C5.11759 7.72108 5.49947 8.10295 5.97055 8.10295H14.0735C14.3796 8.10295 14.6622 7.93892 14.8141 7.67316L15.6284 6.24814ZM22.603 23.8823C23.3095 23.8823 23.8823 23.3095 23.8823 22.603C23.8823 21.8964 23.3095 21.3236 22.603 21.3236C21.8964 21.3236 21.3236 21.8964 21.3236 22.603C21.3236 23.3095 21.8964 23.8823 22.603 23.8823Z" fill="#5AB7B2"/>
</g>
<defs>
<clipPath id="clip0_4703_8399">
<rect width="29" height="29" fill="white"/>
</clipPath>
</defs>
</svg>
