<svg width="34" height="34" viewBox="0 0 34 34" fill="none" xmlns="http://www.w3.org/2000/svg">
<g clip-path="url(#clip0_4700_8372)">
<path fill-rule="evenodd" clip-rule="evenodd" d="M0.272186 6.96997H33.7278V27.8797H0.272186V6.96997Z" fill="#DDEEFF"/>
<path fill-rule="evenodd" clip-rule="evenodd" d="M33.7278 6.96994H0.272186V2.781C0.272186 1.24511 1.52266 0 3.06704 0H30.933C32.4765 0 33.7278 1.24361 33.7278 2.781V6.96994Z" fill="#BBDDFF"/>
<path fill-rule="evenodd" clip-rule="evenodd" d="M8.63609 4.87893C7.86622 4.87893 7.24213 4.25478 7.24213 3.48491C7.24213 2.71503 7.86615 2.09094 8.63609 2.09094C9.40603 2.09094 10.0301 2.71503 10.0301 3.48491C10.0301 4.25478 9.40603 4.87893 8.63609 4.87893ZM3.75712 4.87893C2.98725 4.87893 2.36316 4.25478 2.36316 3.48491C2.36316 2.71503 2.98725 2.09094 3.75712 2.09094C4.52699 2.09094 5.15115 2.71503 5.15115 3.48491C5.15115 4.25478 4.52699 4.87893 3.75712 4.87893Z" fill="white"/>
<path fill-rule="evenodd" clip-rule="evenodd" d="M5.8481 27.8797H0.272186C0.272186 23.5987 1.90537 19.3176 5.17161 16.0513C11.7043 9.5187 22.2957 9.5187 28.8284 16.0513L24.8856 19.9941C22.8675 17.9761 20.0795 16.7278 17 16.7278C10.841 16.7278 5.8481 21.7207 5.8481 27.8797Z" fill="#0066FF"/>
<path fill-rule="evenodd" clip-rule="evenodd" d="M28.1519 27.8797H33.7278C33.7278 23.5986 32.0946 19.3176 28.8284 16.0513L24.8856 19.9941C26.9036 22.0122 28.1519 24.8001 28.1519 27.8797Z" fill="#CC66FF"/>
<path fill-rule="evenodd" clip-rule="evenodd" d="M13.0572 31.8225C10.8797 29.645 10.8797 26.1145 13.0572 23.9369C15.2348 21.7594 27.3498 17.5299 27.3498 17.5299C27.3498 17.5299 23.1204 29.645 20.9428 31.8225C18.7652 34 15.2348 34 13.0572 31.8225Z" fill="#66CCFF"/>
<path fill-rule="evenodd" clip-rule="evenodd" d="M17 30.6676C15.4603 30.6676 14.212 29.4194 14.212 27.8797C14.212 26.3399 15.4603 25.0917 17 25.0917C18.5397 25.0917 19.788 26.3399 19.788 27.8797C19.788 29.4194 18.5397 30.6676 17 30.6676Z" fill="#0066FF"/>
</g>
<defs>
<clipPath id="clip0_4700_8372">
<rect width="34" height="34" fill="white"/>
</clipPath>
</defs>
</svg>
