<svg width="17" height="17" viewBox="0 0 17 17" fill="none" xmlns="http://www.w3.org/2000/svg">
<path d="M8.49998 5.90186C9.93364 5.90186 11.0981 7.06636 11.0981 8.50002C11.0981 9.93369 9.93364 11.101 8.49998 11.101C7.06631 11.101 5.89898 9.93369 5.89898 8.50002C5.89898 7.06636 7.06631 5.90186 8.49998 5.90186Z" fill="#0E0E0F"/>
<path d="M4.57865 1.4165H12.4213C14.1638 1.4165 15.5833 2.836 15.5833 4.5785V12.4212C15.5833 14.1665 14.1638 15.5832 12.4213 15.5832H4.57865C2.83331 15.5832 1.41665 14.1665 1.41665 12.4212V4.5785C1.41665 2.836 2.83331 1.4165 4.57865 1.4165ZM8.49998 13.0898C11.0301 13.0898 13.09 11.03 13.09 8.49984C13.09 5.96967 11.0301 3.91267 8.49998 3.91267C5.96981 3.91267 3.90998 5.96967 3.90998 8.49984C3.90998 11.03 5.96981 13.0898 8.49998 13.0898ZM3.81365 4.74567C4.34915 4.74567 4.78548 4.31217 4.78548 3.77667C4.78548 3.24117 4.34915 2.80484 3.81365 2.80484C3.27815 2.80484 2.84181 3.24117 2.84181 3.77667C2.84181 4.31217 3.27815 4.74567 3.81365 4.74567Z" fill="#0E0E0F"/>
</svg>
