<svg width="73" height="10" viewBox="0 0 73 10" fill="none" xmlns="http://www.w3.org/2000/svg">
<path d="M0.349609 9.15151V1.20741C0.349609 0.70927 0.438308 0.401207 0.615706 0.283225C0.793104 0.165244 1.16057 0.106253 1.71811 0.106253H4.60715L6.48884 4.45191L6.52685 4.68787L6.56487 4.66821L6.60288 4.45191L8.38953 0.106253H11.4306C11.9628 0.106253 12.3049 0.184907 12.457 0.342216C12.6217 0.486416 12.7041 0.794479 12.7041 1.26641V7.99136C12.7041 8.37152 12.6597 8.64026 12.571 8.79757C12.495 8.95487 12.3556 9.05319 12.1529 9.09252C11.9628 9.13185 11.6841 9.15151 11.3166 9.15151H8.94073V4.23561L8.80768 4.90417L7.05904 9.15151H4.83524L3.10561 4.92384L2.97256 4.25527V9.15151H0.349609Z" fill="url(#paint0_linear_4712_11246)"/>
<path d="M13.5797 9.15151L16.7729 1.71867C17.001 1.19431 17.3241 0.78137 17.7423 0.479861C18.1731 0.178353 18.8256 0.0275985 19.7 0.0275985C20.4096 0.0275985 20.9924 0.171798 21.4486 0.460197C21.9174 0.735488 22.2786 1.15498 22.532 1.71867L25.7252 9.15151H21.6767L20.8594 7.30313H17.1911L16.4308 9.15151H13.5797ZM17.7803 5.86769H20.1561L19.2058 3.54738C19.1931 3.48184 19.1678 3.41629 19.1298 3.35075C19.1044 3.2852 19.0601 3.25243 18.9967 3.25243C18.9207 3.25243 18.8637 3.2852 18.8257 3.35075C18.8003 3.41629 18.775 3.48184 18.7496 3.54738L17.7803 5.86769Z" fill="url(#paint1_linear_4712_11246)"/>
<path d="M32.3116 9.23017C31.2599 9.23017 30.3603 9.17773 29.6127 9.07286C28.8651 8.95487 28.2442 8.73202 27.75 8.40429C27.2685 8.07657 26.9137 7.61775 26.6856 7.02784C26.4575 6.42482 26.3435 5.64483 26.3435 4.68787C26.3435 3.63915 26.4892 2.80672 26.7806 2.1906C27.0847 1.56136 27.5029 1.09599 28.0351 0.794479C28.58 0.479861 29.2135 0.270116 29.9358 0.165244C30.6707 0.0603709 31.469 0.00793457 32.3306 0.00793457C33.357 0.00793457 34.263 0.0275983 35.0486 0.0669258C35.8342 0.093144 36.3854 0.14558 36.7022 0.224234C37.0824 0.28978 37.3548 0.407761 37.5195 0.578179C37.6969 0.735488 37.8046 0.912461 37.8426 1.1091C37.8807 1.30573 37.8997 1.50237 37.8997 1.69901V2.60353C37.8363 2.49866 37.6462 2.40689 37.3295 2.32824C37.0253 2.24959 36.6579 2.19059 36.2271 2.15127C35.8089 2.11194 35.3781 2.07917 34.9346 2.05295C34.5038 2.02673 34.111 2.01362 33.7562 2.01362C33.4014 2.00051 33.1416 1.99396 32.9769 1.99396C32.2926 1.99396 31.7478 2.0595 31.3423 2.1906C30.9368 2.30858 30.6454 2.55765 30.468 2.93781C30.2906 3.31798 30.2019 3.90133 30.2019 4.68787C30.2019 5.39576 30.2842 5.93323 30.449 6.30029C30.6264 6.66734 30.8861 6.91641 31.2282 7.0475C31.583 7.1786 32.0265 7.24414 32.5587 7.24414C33.1036 7.24414 33.5217 7.20481 33.8132 7.12616C34.1173 7.0344 34.3264 6.89675 34.4404 6.71322C34.5671 6.5297 34.6305 6.28718 34.6305 5.98567C34.6305 5.89391 34.6305 5.81525 34.6305 5.74971C34.6305 5.68416 34.6305 5.62517 34.6305 5.57273H31.5324C31.5324 5.04837 31.5577 4.64855 31.6084 4.37325C31.6717 4.08486 31.8175 3.88166 32.0455 3.76368C32.2863 3.63259 32.6664 3.56705 33.186 3.56705H38.2608L38.2418 5.96601C38.2418 6.54281 38.1658 7.04095 38.0137 7.46044C37.8617 7.86682 37.5765 8.2011 37.1584 8.46329C36.7529 8.72547 36.1574 8.9221 35.3717 9.05319C34.5861 9.17117 33.5661 9.23017 32.3116 9.23017Z" fill="url(#paint2_linear_4712_11246)"/>
<path d="M44.1669 7.12616H49.907C49.907 7.59809 49.8943 7.97169 49.869 8.24698C49.8563 8.52227 49.7993 8.72547 49.6979 8.85656C49.6092 8.98765 49.4571 9.07286 49.2417 9.11218C49.039 9.1384 48.7412 9.15151 48.3484 9.15151H38.978V7.1065C39.0033 7.09339 39.1047 6.99507 39.2821 6.81154C39.4722 6.61491 39.7193 6.37239 40.0234 6.08399C40.3402 5.79559 40.6823 5.47442 41.0498 5.12047C41.4172 4.76653 41.791 4.41258 42.1712 4.05864C42.5513 3.70469 42.9061 3.37697 43.2356 3.07546C43.565 2.77395 43.8438 2.52488 44.0719 2.32824C44.1225 2.28891 44.1922 2.25614 44.2809 2.22992C44.3696 2.19059 44.433 2.15782 44.471 2.1316H39.2441C39.2441 1.60724 39.2568 1.20086 39.2821 0.91246C39.3075 0.624061 39.4025 0.420871 39.5672 0.302889C39.7319 0.171798 40.0171 0.106253 40.4225 0.106253H49.7169C49.7169 0.119362 49.7106 0.237343 49.6979 0.460197C49.6979 0.683052 49.6599 0.958343 49.5839 1.28607C49.5205 1.6138 49.3938 1.96119 49.2037 2.32824C49.0136 2.69529 48.7349 3.03613 48.3674 3.35075L44.49 7.02784L44.1669 7.12616Z" fill="url(#paint3_linear_4712_11246)"/>
<path d="M51.0594 9.15151C51.0594 7.8406 51.0594 6.5297 51.0594 5.21879C51.0594 3.89477 51.0594 2.57731 51.0594 1.26641C51.0594 1.01733 51.0784 0.807588 51.1164 0.63717C51.1544 0.453643 51.2558 0.322552 51.4205 0.243898C51.5979 0.152135 51.883 0.106253 52.2759 0.106253H54.8038V9.15151H51.0594Z" fill="url(#paint4_linear_4712_11246)"/>
<path d="M56.665 9.15151V1.3254C56.665 0.827252 56.7347 0.499525 56.874 0.342216C57.0261 0.184907 57.3809 0.106253 57.9384 0.106253H61.5117L65.085 5.23845L65.1991 5.84802V0.106253H67.917C67.9044 0.132471 67.8917 0.224234 67.879 0.381543C67.8664 0.538852 67.86 0.715825 67.86 0.91246C67.86 1.09599 67.86 1.25985 67.86 1.40405V8.129C67.86 8.58782 67.7523 8.87622 67.5369 8.9942C67.3215 9.09907 66.9414 9.15151 66.3965 9.15151H63.1463L59.44 3.862L59.3259 3.23277V9.15151H56.665Z" fill="url(#paint5_linear_4712_11246)"/>
<path d="M69.5598 8.10934C69.5598 7.6243 69.7245 7.3228 70.054 7.20481C70.3834 7.07372 70.7826 7.00818 71.2514 7.00818C71.7329 7.00818 72.1131 7.07372 72.3918 7.20481C72.6706 7.3359 72.81 7.63741 72.81 8.10934C72.81 8.46328 72.7403 8.71891 72.6009 8.87622C72.4742 9.02042 72.2905 9.11218 72.0497 9.15151C71.809 9.19084 71.5239 9.2105 71.1944 9.2105C70.8776 9.2105 70.5925 9.19084 70.3391 9.15151C70.0983 9.11218 69.9083 9.02042 69.7689 8.87622C69.6295 8.71891 69.5598 8.46328 69.5598 8.10934Z" fill="url(#paint6_linear_4712_11246)"/>
<defs>
<linearGradient id="paint0_linear_4712_11246" x1="0.349609" y1="4.61905" x2="72.81" y2="4.61905" gradientUnits="userSpaceOnUse">
<stop stop-color="#EE6E47"/>
<stop offset="1" stop-color="#28886A"/>
</linearGradient>
<linearGradient id="paint1_linear_4712_11246" x1="0.349609" y1="4.61905" x2="72.81" y2="4.61905" gradientUnits="userSpaceOnUse">
<stop stop-color="#EE6E47"/>
<stop offset="1" stop-color="#28886A"/>
</linearGradient>
<linearGradient id="paint2_linear_4712_11246" x1="0.349609" y1="4.61905" x2="72.81" y2="4.61905" gradientUnits="userSpaceOnUse">
<stop stop-color="#EE6E47"/>
<stop offset="1" stop-color="#28886A"/>
</linearGradient>
<linearGradient id="paint3_linear_4712_11246" x1="0.349609" y1="4.61905" x2="72.81" y2="4.61905" gradientUnits="userSpaceOnUse">
<stop stop-color="#EE6E47"/>
<stop offset="1" stop-color="#28886A"/>
</linearGradient>
<linearGradient id="paint4_linear_4712_11246" x1="0.349609" y1="4.61905" x2="72.81" y2="4.61905" gradientUnits="userSpaceOnUse">
<stop stop-color="#EE6E47"/>
<stop offset="1" stop-color="#28886A"/>
</linearGradient>
<linearGradient id="paint5_linear_4712_11246" x1="0.349609" y1="4.61905" x2="72.81" y2="4.61905" gradientUnits="userSpaceOnUse">
<stop stop-color="#EE6E47"/>
<stop offset="1" stop-color="#28886A"/>
</linearGradient>
<linearGradient id="paint6_linear_4712_11246" x1="0.349609" y1="4.61905" x2="72.81" y2="4.61905" gradientUnits="userSpaceOnUse">
<stop stop-color="#EE6E47"/>
<stop offset="1" stop-color="#28886A"/>
</linearGradient>
</defs>
</svg>
